STARTFONT 2.1
FONT -FontForge-Monofett-Book-R-Normal--24-240-72-72-P-133-ISO10646-1
SIZE 24 72 72
FONTBOUNDINGBOX 15 28 0 -4
COMMENT "Generated by fontforge, http://fontforge.sourceforge.net"
COMMENT "Copyright (c) 2011 by vernon adams. All rights reserved."
STARTPROPERTIES 40
FOUNDRY "FontForge"
FAMILY_NAME "Monofett"
WEIGHT_NAME "Book"
SLANT "R"
SETWIDTH_NAME "Normal"
ADD_STYLE_NAME ""
PIXEL_SIZE 24
POINT_SIZE 240
RESOLUTION_X 72
RESOLUTION_Y 72
SPACING "P"
AVERAGE_WIDTH 133
CHARSET_REGISTRY "ISO10646"
CHARSET_ENCODING "1"
FONTNAME_REGISTRY ""
CHARSET_COLLECTIONS "ISO8859-2 ISO8859-9 ISO8859-4 ISO10646-1"
FONT_NAME "Monofett"
FACE_NAME "Monofett"
COPYRIGHT "Copyright (c) 2011 by vernon adams. All rights reserved."
FONT_VERSION "1.000"
FONT_ASCENT 19
FONT_DESCENT 5
UNDERLINE_POSITION -3
UNDERLINE_THICKNESS 1
X_HEIGHT 15
CAP_HEIGHT 15
RAW_ASCENT 799
RAW_DESCENT 200
NORM_SPACE 3
RELATIVE_WEIGHT 40
RELATIVE_SETWIDTH 50
SUPERSCRIPT_X 0
SUPERSCRIPT_Y 11
SUPERSCRIPT_SIZE 15
SUBSCRIPT_X 0
SUBSCRIPT_Y 3
SUBSCRIPT_SIZE 15
FIGURE_WIDTH 14
AVG_LOWERCASE_WIDTH 140
AVG_UPPERCASE_WIDTH 140
ENDPROPERTIES
CHARS 409
STARTCHAR uni000D
ENCODING 13
SWIDTH 144 0
DWIDTH 3 0
BBX 1 1 0 0
BITMAP
00
ENDCHAR
STARTCHAR space
ENCODING 32
SWIDTH 144 0
DWIDTH 3 0
BBX 1 1 0 0
BITMAP
00
ENDCHAR
STARTCHAR exclam
ENCODING 33
SWIDTH 424 0
DWIDTH 10 0
BBX 10 16 0 0
BITMAP
1F00
7380
F3C0
FBC0
FBC0
FBC0
FBC0
FBC0
FBC0
FFC0
FBC0
FFC0
FFC0
FFC0
7F80
1E00
ENDCHAR
STARTCHAR quotedbl
ENCODING 34
SWIDTH 424 0
DWIDTH 10 0
BBX 10 16 0 0
BITMAP
1F00
7580
F5C0
F5C0
FFC0
FFC0
FFC0
FFC0
FFC0
FFC0
FFC0
FFC0
FFC0
FFC0
7F80
1E00
ENDCHAR
STARTCHAR numbersign
ENCODING 35
SWIDTH 482 0
DWIDTH 12 0
BBX 12 16 0 0
BITMAP
1F80
7FC0
F2E0
F2F0
E070
F6F0
F4F0
E1F0
E0F0
F5F0
FFF0
FFF0
FFF0
FFE0
7FC0
1F80
ENDCHAR
STARTCHAR dollar
ENCODING 36
SWIDTH 578 0
DWIDTH 14 0
BBX 14 16 0 0
BITMAP
1FE0
7EF8
F038
F6BC
F6FC
F6FC
F03C
FEBC
F6BC
F03C
F87C
FEFC
FFFC
FFF8
7FF8
1FE0
ENDCHAR
STARTCHAR percent
ENCODING 37
SWIDTH 578 0
DWIDTH 14 0
BBX 14 16 0 0
BITMAP
1FE0
7FF8
C278
DAFC
C2FC
FEFC
FD9C
FD0C
FD6C
F90C
FFFC
FFFC
FFFC
FFF8
7FF8
1FE0
ENDCHAR
STARTCHAR ampersand
ENCODING 38
SWIDTH 578 0
DWIDTH 14 0
BBX 14 16 0 0
BITMAP
1FE0
7838
F3F8
F3FC
F39C
FC1C
FB9C
F39C
F39C
F01C
F83C
FFFC
FFFC
FFF8
7FF8
1FE0
ENDCHAR
STARTCHAR quotesingle
ENCODING 39
SWIDTH 424 0
DWIDTH 10 0
BBX 10 16 0 0
BITMAP
1F00
7B80
FBC0
FBC0
FFC0
FFC0
FFC0
FFC0
FFC0
FFC0
FFC0
FFC0
FFC0
FFC0
7F80
1E00
ENDCHAR
STARTCHAR parenleft
ENCODING 40
SWIDTH 483 0
DWIDTH 12 0
BBX 12 16 0 0
BITMAP
1F80
71E0
F7E0
F7F0
F7F0
F7F0
F7F0
F7F0
F7F0
F7F0
F7F0
F1F0
FFF0
FFE0
7FC0
1F80
ENDCHAR
STARTCHAR parenright
ENCODING 41
SWIDTH 483 0
DWIDTH 12 0
BBX 12 16 0 0
BITMAP
1F80
71E0
FCE0
FEF0
FEF0
FEF0
FEF0
FEF0
FEF0
FEF0
FCF0
F1F0
FFF0
FFE0
7FC0
1F80
ENDCHAR
STARTCHAR asterisk
ENCODING 42
SWIDTH 428 0
DWIDTH 10 0
BBX 10 16 0 0
BITMAP
1F00
7580
F5C0
E040
F9C0
F5C0
FFC0
FFC0
FFC0
FFC0
FFC0
FFC0
FFC0
FFC0
7F80
1F00
ENDCHAR
STARTCHAR plus
ENCODING 43
SWIDTH 428 0
DWIDTH 10 0
BBX 10 16 0 0
BITMAP
1F00
7B80
FBC0
C0C0
C0C0
FBC0
FBC0
FFC0
FFC0
FFC0
FFC0
FFC0
FFC0
FFC0
7F80
1F00
ENDCHAR
STARTCHAR comma
ENCODING 44
SWIDTH 428 0
DWIDTH 10 0
BBX 10 16 0 0
BITMAP
1F00
7F80
FFC0
FFC0
FFC0
FFC0
FFC0
FFC0
FFC0
F3C0
F3C0
FBC0
FFC0
FFC0
7F80
1F00
ENDCHAR
STARTCHAR hyphen
ENCODING 45
SWIDTH 428 0
DWIDTH 10 0
BBX 10 16 0 0
BITMAP
1F00
7F80
FFC0
FFC0
E1C0
FFC0
FFC0
FFC0
FFC0
FFC0
FFC0
FFC0
FFC0
FFC0
7F80
1F00
ENDCHAR
STARTCHAR period
ENCODING 46
SWIDTH 428 0
DWIDTH 10 0
BBX 10 16 0 0
BITMAP
1F00
7F80
FFC0
FFC0
FFC0
FFC0
FFC0
FFC0
FFC0
F3C0
F3C0
FFC0
FFC0
FFC0
7F80
1F00
ENDCHAR
STARTCHAR slash
ENCODING 47
SWIDTH 428 0
DWIDTH 10 0
BBX 10 16 0 0
BITMAP
1F00
7980
FBC0
FBC0
FBC0
FBC0
F3C0
F3C0
F7C0
F7C0
F7C0
FFC0
FFC0
FFC0
7F80
1F00
ENDCHAR
STARTCHAR zero
ENCODING 48
SWIDTH 578 0
DWIDTH 14 0
BBX 14 16 0 0
BITMAP
1FE0
7018
F7D8
F7DC
F7DC
F7DC
F7DC
F7DC
F7DC
F01C
F83C
FFFC
FFFC
FFF8
7FF8
1FE0
ENDCHAR
STARTCHAR one
ENCODING 49
SWIDTH 578 0
DWIDTH 14 0
BBX 14 16 0 0
BITMAP
1FE0
78F8
FAF8
FEFC
FEFC
FEFC
FEFC
FEFC
FEFC
FEFC
FEFC
FFFC
FFFC
FFF8
7FF8
1FE0
ENDCHAR
STARTCHAR two
ENCODING 50
SWIDTH 578 0
DWIDTH 14 0
BBX 14 16 0 0
BITMAP
1FE0
7038
F798
FFDC
FFDC
FC1C
F07C
F7FC
F7FC
F03C
F03C
FFFC
FFFC
FFF8
7FF8
1FE0
ENDCHAR
STARTCHAR three
ENCODING 51
SWIDTH 578 0
DWIDTH 14 0
BBX 14 16 0 0
BITMAP
1FE0
7038
E798
FF9C
FF9C
F83C
FF9C
FF9C
F79C
E01C
F03C
FFFC
FFFC
FFF8
7FF8
1FE0
ENDCHAR
STARTCHAR four
ENCODING 52
SWIDTH 578 0
DWIDTH 14 0
BBX 14 16 0 0
BITMAP
1FE0
7738
F738
F73C
F73C
F73C
F73C
F01C
FF3C
FF3C
FF3C
FFFC
FFFC
FFF8
7FF8
1FE0
ENDCHAR
STARTCHAR five
ENCODING 53
SWIDTH 578 0
DWIDTH 14 0
BBX 14 16 0 0
BITMAP
1FE0
7038
F7F8
F7FC
F7FC
F01C
FFDC
FFDC
FFDC
F01C
F83C
FFFC
FFFC
FFF8
7FF8
1FE0
ENDCHAR
STARTCHAR six
ENCODING 54
SWIDTH 578 0
DWIDTH 14 0
BBX 14 16 0 0
BITMAP
1FE0
7038
F7F8
F7FC
F7FC
F01C
F7DC
F7DC
F7DC
F01C
F83C
FFFC
FFFC
FFF8
7FF8
1FE0
ENDCHAR
STARTCHAR seven
ENCODING 55
SWIDTH 578 0
DWIDTH 14 0
BBX 14 16 0 0
BITMAP
1FE0
7838
FFB8
FF7C
FF7C
FE7C
FEFC
FEFC
FCFC
FDFC
FDFC
FFFC
FFFC
FFF8
7FF8
1FE0
ENDCHAR
STARTCHAR eight
ENCODING 56
SWIDTH 578 0
DWIDTH 14 0
BBX 14 16 0 0
BITMAP
1FE0
7038
F7D8
F7DC
F7DC
F01C
F7DC
F7DC
F7DC
F01C
F83C
FFFC
FFFC
FFF8
7FF8
1FE0
ENDCHAR
STARTCHAR nine
ENCODING 57
SWIDTH 578 0
DWIDTH 14 0
BBX 14 16 0 0
BITMAP
1FE0
7038
F7D8
F7DC
F7DC
F7DC
F01C
FFDC
FFDC
F01C
F83C
FFFC
FFFC
FFF8
7FF8
1FE0
ENDCHAR
STARTCHAR colon
ENCODING 58
SWIDTH 428 0
DWIDTH 10 0
BBX 10 16 0 0
BITMAP
1F00
7F80
FFC0
FFC0
FFC0
FFC0
F3C0
FFC0
FFC0
F3C0
F3C0
FFC0
FFC0
FFC0
7F80
1F00
ENDCHAR
STARTCHAR semicolon
ENCODING 59
SWIDTH 428 0
DWIDTH 10 0
BBX 10 16 0 0
BITMAP
1F00
7F80
FFC0
FFC0
FFC0
FFC0
FBC0
FFC0
FFC0
F3C0
F3C0
FBC0
FFC0
FFC0
7F80
1F00
ENDCHAR
STARTCHAR less
ENCODING 60
SWIDTH 482 0
DWIDTH 12 0
BBX 12 17 0 1
BITMAP
3F80
7FC0
FFE0
FFF0
FFF0
FDF0
FBF0
F7F0
EFF0
F7F0
FBF0
F9F0
FDF0
FFE0
7FE0
7FC0
1F00
ENDCHAR
STARTCHAR equal
ENCODING 61
SWIDTH 482 0
DWIDTH 12 0
BBX 12 17 0 1
BITMAP
3F80
7FC0
FFE0
FFF0
FFF0
FFF0
FFF0
FFF0
FFF0
F0F0
FFF0
FFF0
FFF0
FFE0
7FE0
7FC0
1F00
ENDCHAR
STARTCHAR greater
ENCODING 62
SWIDTH 482 0
DWIDTH 12 0
BBX 12 17 0 1
BITMAP
3F80
7FC0
FFE0
FFF0
F7F0
FBF0
FDF0
FEF0
FFF0
FEF0
FDF0
FBF0
F7F0
FFE0
7FE0
7FC0
1F00
ENDCHAR
STARTCHAR question
ENCODING 63
SWIDTH 578 0
DWIDTH 14 0
BBX 14 16 0 0
BITMAP
1FE0
7838
FBD8
FFDC
FFDC
FFDC
FE3C
FEFC
FEFC
FFFC
FEFC
FFFC
FFFC
FFF8
7FF8
1FE0
ENDCHAR
STARTCHAR at
ENCODING 64
SWIDTH 578 0
DWIDTH 14 0
BBX 14 16 0 0
BITMAP
1FE0
7018
EFC8
D86C
DFAC
DFAC
D82C
DBAC
D82C
DF8C
EFFC
F0FC
FFFC
FFF8
7FF8
1FE0
ENDCHAR
STARTCHAR A
ENCODING 65
SWIDTH 578 0
DWIDTH 14 0
BBX 14 16 0 0
BITMAP
1FE0
7838
F3B8
F7BC
F79C
F79C
F01C
F7DC
F7DC
F7DC
E7DC
FFFC
FFFC
FFF8
7FF8
1FE0
ENDCHAR
STARTCHAR B
ENCODING 66
SWIDTH 578 0
DWIDTH 14 0
BBX 14 16 0 0
BITMAP
1FE0
7038
F798
F79C
F79C
F07C
F7BC
F79C
F79C
F01C
F03C
FFFC
FFFC
FFF8
7FF8
1FE0
ENDCHAR
STARTCHAR C
ENCODING 67
SWIDTH 578 0
DWIDTH 14 0
BBX 14 16 0 0
BITMAP
1FE0
7038
F7F8
F7FC
F7FC
F7FC
F7FC
F7FC
F7FC
F03C
F83C
FFFC
FFFC
FFF8
7FF8
1FE0
ENDCHAR
STARTCHAR D
ENCODING 68
SWIDTH 578 0
DWIDTH 14 0
BBX 14 16 0 0
BITMAP
1FE0
7018
F7D8
F7DC
F7DC
F7DC
F7DC
F7DC
F7DC
F01C
F03C
FFFC
FFFC
FFF8
7FF8
1FE0
ENDCHAR
STARTCHAR E
ENCODING 69
SWIDTH 578 0
DWIDTH 14 0
BBX 14 16 0 0
BITMAP
1FE0
7838
FBF8
FBFC
FBFC
F83C
FBFC
FBFC
FBFC
F81C
F81C
FFFC
FFFC
FFF8
7FF8
1FE0
ENDCHAR
STARTCHAR F
ENCODING 70
SWIDTH 578 0
DWIDTH 14 0
BBX 14 16 0 0
BITMAP
1FE0
7838
FBF8
FBFC
FBFC
F83C
FBFC
FBFC
FBFC
FBFC
FBFC
FFFC
FFFC
FFF8
7FF8
1FE0
ENDCHAR
STARTCHAR G
ENCODING 71
SWIDTH 578 0
DWIDTH 14 0
BBX 14 16 0 0
BITMAP
1FE0
7818
F7F8
F7FC
F7FC
F7FC
F71C
F7DC
F7DC
F01C
F83C
FFFC
FFFC
FFF8
7FF8
1FE0
ENDCHAR
STARTCHAR H
ENCODING 72
SWIDTH 578 0
DWIDTH 14 0
BBX 14 16 0 0
BITMAP
1FE0
77D8
F7D8
F7DC
F7DC
F01C
F7DC
F7DC
F7DC
F7DC
F7DC
FFFC
FFFC
FFF8
7FF8
1FE0
ENDCHAR
STARTCHAR I
ENCODING 73
SWIDTH 578 0
DWIDTH 14 0
BBX 14 16 0 0
BITMAP
1FE0
7018
FEF8
FEFC
FEFC
FEFC
FEFC
FEFC
FEFC
F01C
F01C
FFFC
FFFC
FFF8
7FF8
1FE0
ENDCHAR
STARTCHAR J
ENCODING 74
SWIDTH 578 0
DWIDTH 14 0
BBX 14 16 0 0
BITMAP
1FE0
7F78
FF78
FF7C
FF7C
FF7C
FF7C
FF7C
FF7C
F87C
F8FC
FFFC
FFFC
FFF8
7FF8
1FE0
ENDCHAR
STARTCHAR K
ENCODING 75
SWIDTH 578 0
DWIDTH 14 0
BBX 14 16 0 0
BITMAP
1FF0
7BC8
FB98
FB3C
FA7C
F8FC
FAFC
FB7C
FB3C
FB9C
FBDC
FFFC
FFFC
FFF8
7FF8
1FE0
ENDCHAR
STARTCHAR L
ENCODING 76
SWIDTH 578 0
DWIDTH 14 0
BBX 14 16 0 0
BITMAP
1FE0
7BF8
FBF8
FBFC
FBFC
FBFC
FBFC
FBFC
FBFC
F83C
F83C
FFFC
FFFC
FFF8
7FF8
1FE0
ENDCHAR
STARTCHAR M
ENCODING 77
SWIDTH 578 0
DWIDTH 14 0
BBX 14 16 0 0
BITMAP
1FE0
6118
EEC8
EECC
EECC
EECC
EECC
EFCC
EFCC
EFCC
EFCC
FFFC
FFFC
FFF8
7FF8
1FE0
ENDCHAR
STARTCHAR N
ENCODING 78
SWIDTH 578 0
DWIDTH 14 0
BBX 14 16 0 0
BITMAP
1FE0
7038
F7D8
F7DC
F7DC
F7DC
F7DC
F7DC
F7DC
F7DC
F7DC
FFFC
FFFC
FFF8
7FF8
1FE0
ENDCHAR
STARTCHAR O
ENCODING 79
SWIDTH 578 0
DWIDTH 14 0
BBX 14 16 0 0
BITMAP
1FE0
7018
F7D8
F7DC
F7DC
F7DC
F7DC
F7DC
F7DC
F01C
F83C
FFFC
FFFC
FFF8
7FF8
1FE0
ENDCHAR
STARTCHAR P
ENCODING 80
SWIDTH 578 0
DWIDTH 14 0
BBX 14 16 0 0
BITMAP
1FE0
7038
F3D8
F3DC
F3DC
F3DC
F01C
F3FC
F3FC
F3FC
F3FC
FFFC
FFFC
FFF8
7FF8
1FE0
ENDCHAR
STARTCHAR Q
ENCODING 81
SWIDTH 578 0
DWIDTH 14 0
BBX 14 16 0 0
BITMAP
1FE0
7018
F7D8
F7DC
F7DC
F7DC
F7DC
F7DC
F6DC
F01C
F87C
FF3C
FFFC
FFF8
7FF8
1FE0
ENDCHAR
STARTCHAR R
ENCODING 82
SWIDTH 578 0
DWIDTH 14 0
BBX 14 16 0 0
BITMAP
1FE0
7038
F7B8
F7BC
F7BC
F73C
F07C
F79C
F79C
F79C
F79C
FFFC
FFFC
FFF8
7FF8
1FE0
ENDCHAR
STARTCHAR S
ENCODING 83
SWIDTH 578 0
DWIDTH 14 0
BBX 14 16 0 0
BITMAP
1FE0
7818
F7F8
F7FC
F7FC
F03C
FFDC
FFDC
FFDC
F81C
F03C
FFFC
FFFC
FFF8
7FF8
1FE0
ENDCHAR
STARTCHAR T
ENCODING 84
SWIDTH 578 0
DWIDTH 14 0
BBX 14 16 0 0
BITMAP
1FE0
7018
FEF8
FEFC
FEFC
FEFC
FEFC
FEFC
FEFC
FEFC
FEFC
FFFC
FFFC
FFF8
7FF8
1FE0
ENDCHAR
STARTCHAR U
ENCODING 85
SWIDTH 578 0
DWIDTH 14 0
BBX 14 16 0 0
BITMAP
1FE0
77D8
F7D8
F7DC
F7DC
F7DC
F7DC
F7DC
F7DC
F01C
F83C
FFFC
FFFC
FFF8
7FF8
1FE0
ENDCHAR
STARTCHAR V
ENCODING 86
SWIDTH 578 0
DWIDTH 14 0
BBX 14 16 0 0
BITMAP
1FE0
77D8
F798
F39C
FBBC
FBBC
FB3C
F97C
FD7C
FC7C
FEFC
FFFC
FFFC
FFF8
7FF8
1FE0
ENDCHAR
STARTCHAR W
ENCODING 87
SWIDTH 578 0
DWIDTH 14 0
BBX 14 16 0 0
BITMAP
1FF0
6EE8
ECC8
ECCC
ECCC
ED5C
ED5C
E55C
E55C
E11C
F3BC
FFFC
FFFC
FFF8
7FF8
1FE0
ENDCHAR
STARTCHAR X
ENCODING 88
SWIDTH 578 0
DWIDTH 14 0
BBX 14 16 0 0
BITMAP
1FE0
77D8
F398
FBBC
FD7C
FE7C
FC7C
FD3C
FBBC
F39C
F7DC
FFFC
FFFC
FFF8
7FF8
1FE0
ENDCHAR
STARTCHAR Y
ENCODING 89
SWIDTH 578 0
DWIDTH 14 0
BBX 14 16 0 0
BITMAP
1FE0
7398
FBB8
FBBC
F93C
FD7C
FC7C
FEFC
FEFC
FEFC
FEFC
FFFC
FFFC
FFF8
7FF8
1FE0
ENDCHAR
STARTCHAR Z
ENCODING 90
SWIDTH 578 0
DWIDTH 14 0
BBX 14 16 0 0
BITMAP
1FE0
7838
FFB8
FF7C
FE7C
FEFC
FCFC
FDFC
FBFC
F83C
F83C
FFFC
FFFC
FFF8
7FF8
1FE0
ENDCHAR
STARTCHAR bracketleft
ENCODING 91
SWIDTH 484 0
DWIDTH 12 0
BBX 12 16 0 0
BITMAP
1F80
79E0
FBE0
FBF0
FBF0
FBF0
FBF0
FBF0
FBF0
FBF0
FBF0
F9F0
FFF0
FFE0
7FC0
1F80
ENDCHAR
STARTCHAR backslash
ENCODING 92
SWIDTH 516 0
DWIDTH 12 0
BBX 12 16 0 0
BITMAP
1FC0
7BE0
FBF0
F9F0
FDF0
FDF0
FDF0
FDF0
FDF0
FCF0
FEF0
FFF0
FFF0
FFF0
7FE0
1FC0
ENDCHAR
STARTCHAR bracketright
ENCODING 93
SWIDTH 484 0
DWIDTH 12 0
BBX 12 16 0 0
BITMAP
1F80
79E0
F9E0
F9F0
F9F0
F9F0
F9F0
F9F0
F9F0
F9F0
F9F0
F9F0
FFF0
FFE0
7FC0
1F80
ENDCHAR
STARTCHAR asciicircum
ENCODING 94
SWIDTH 355 0
DWIDTH 9 0
BBX 9 8 0 6
BITMAP
3C00
3E00
7600
6F00
FB00
DF80
FF80
FF00
ENDCHAR
STARTCHAR underscore
ENCODING 95
SWIDTH 428 0
DWIDTH 10 0
BBX 10 16 0 0
BITMAP
1F00
7F80
FFC0
FFC0
FFC0
FFC0
FFC0
FFC0
FFC0
FFC0
FFC0
C0C0
FFC0
FFC0
7F80
1F00
ENDCHAR
STARTCHAR grave
ENCODING 96
SWIDTH 308 0
DWIDTH 7 0
BBX 7 8 0 0
BITMAP
7C
FC
EE
EE
76
76
3E
1C
ENDCHAR
STARTCHAR a
ENCODING 97
SWIDTH 578 0
DWIDTH 14 0
BBX 14 16 0 0
BITMAP
1FE0
7038
FFB8
FFBC
FFBC
FFBC
F03C
E7BC
E7BC
F03C
F03C
FFFC
FFFC
FFF8
7FF8
1FE0
ENDCHAR
STARTCHAR b
ENCODING 98
SWIDTH 578 0
DWIDTH 14 0
BBX 14 16 0 0
BITMAP
1FE0
7038
F798
F79C
F79C
F07C
F7BC
F79C
F79C
F01C
F03C
FFFC
FFFC
FFF8
7FF8
1FE0
ENDCHAR
STARTCHAR c
ENCODING 99
SWIDTH 578 0
DWIDTH 14 0
BBX 14 16 0 0
BITMAP
1FE0
7038
F7F8
F7FC
F7FC
F7FC
F7FC
F7FC
F7FC
F03C
F83C
FFFC
FFFC
FFF8
7FF8
1FE0
ENDCHAR
STARTCHAR d
ENCODING 100
SWIDTH 578 0
DWIDTH 14 0
BBX 14 16 0 0
BITMAP
1FE0
7018
F7D8
F7DC
F7DC
F7DC
F7DC
F7DC
F7DC
F01C
F03C
FFFC
FFFC
FFF8
7FF8
1FE0
ENDCHAR
STARTCHAR e
ENCODING 101
SWIDTH 578 0
DWIDTH 14 0
BBX 14 16 0 0
BITMAP
1FE0
7038
F7B8
F7BC
F7BC
F03C
F7FC
F7FC
F7FC
F03C
FFFC
FFFC
FFFC
FFF8
7FF8
1FE0
ENDCHAR
STARTCHAR f
ENCODING 102
SWIDTH 578 0
DWIDTH 14 0
BBX 14 16 0 0
BITMAP
1FE0
7838
FBF8
FBFC
FBFC
F83C
FBFC
FBFC
FBFC
FBFC
FBFC
FFFC
FFFC
FFF8
7FF8
1FE0
ENDCHAR
STARTCHAR g
ENCODING 103
SWIDTH 578 0
DWIDTH 14 0
BBX 14 16 0 0
BITMAP
1FE0
7818
F7F8
F7FC
F7FC
F7FC
F71C
F7DC
F7DC
F01C
F83C
FFFC
FFFC
FFF8
7FF8
1FE0
ENDCHAR
STARTCHAR h
ENCODING 104
SWIDTH 578 0
DWIDTH 14 0
BBX 14 16 0 0
BITMAP
1FE0
77D8
F7D8
F7DC
F7DC
F01C
F7DC
F7DC
F7DC
F7DC
F7DC
FFFC
FFFC
FFF8
7FF8
1FE0
ENDCHAR
STARTCHAR i
ENCODING 105
SWIDTH 578 0
DWIDTH 14 0
BBX 14 16 0 0
BITMAP
1FE0
7018
FEF8
FEFC
FEFC
FEFC
FEFC
FEFC
FEFC
F01C
F01C
FFFC
FFFC
FFF8
7FF8
1FE0
ENDCHAR
STARTCHAR j
ENCODING 106
SWIDTH 578 0
DWIDTH 14 0
BBX 14 16 0 0
BITMAP
1FE0
7F78
FF78
FF7C
FF7C
FF7C
FF7C
FF7C
FF7C
F87C
F8FC
FFFC
FFFC
FFF8
7FF8
1FE0
ENDCHAR
STARTCHAR k
ENCODING 107
SWIDTH 578 0
DWIDTH 14 0
BBX 14 16 0 0
BITMAP
1FF0
7BC8
FB98
FB3C
FA7C
F8FC
FAFC
FB7C
FB3C
FB9C
FBDC
FFFC
FFFC
FFF8
7FF8
1FE0
ENDCHAR
STARTCHAR l
ENCODING 108
SWIDTH 578 0
DWIDTH 14 0
BBX 14 16 0 0
BITMAP
1FE0
7BF8
FBF8
FBFC
FBFC
FBFC
FBFC
FBFC
FBFC
F83C
F83C
FFFC
FFFC
FFF8
7FF8
1FE0
ENDCHAR
STARTCHAR m
ENCODING 109
SWIDTH 578 0
DWIDTH 14 0
BBX 14 16 0 0
BITMAP
1FE0
6118
EEC8
EECC
EECC
EECC
EECC
EFCC
EFCC
EFCC
EFCC
FFFC
FFFC
FFF8
7FF8
1FE0
ENDCHAR
STARTCHAR n
ENCODING 110
SWIDTH 578 0
DWIDTH 14 0
BBX 14 16 0 0
BITMAP
1FE0
7038
F7D8
F7DC
F7DC
F7DC
F7DC
F7DC
F7DC
F7DC
F7DC
FFFC
FFFC
FFF8
7FF8
1FE0
ENDCHAR
STARTCHAR o
ENCODING 111
SWIDTH 578 0
DWIDTH 14 0
BBX 14 16 0 0
BITMAP
1FE0
7018
F7D8
F7DC
F7DC
F7DC
F7DC
F7DC
F7DC
F01C
F83C
FFFC
FFFC
FFF8
7FF8
1FE0
ENDCHAR
STARTCHAR p
ENCODING 112
SWIDTH 578 0
DWIDTH 14 0
BBX 14 16 0 0
BITMAP
1FE0
7038
F3D8
F3DC
F3DC
F3DC
F01C
F3FC
F3FC
F3FC
F3FC
FFFC
FFFC
FFF8
7FF8
1FE0
ENDCHAR
STARTCHAR q
ENCODING 113
SWIDTH 578 0
DWIDTH 14 0
BBX 14 16 0 0
BITMAP
1FE0
7018
F7D8
F7DC
F7DC
F7DC
F7DC
F7DC
F6DC
F01C
F87C
FF3C
FFFC
FFF8
7FF8
1FE0
ENDCHAR
STARTCHAR r
ENCODING 114
SWIDTH 578 0
DWIDTH 14 0
BBX 14 16 0 0
BITMAP
1FE0
7038
F7B8
F7BC
F7BC
F73C
F07C
F79C
F79C
F79C
F79C
FFFC
FFFC
FFF8
7FF8
1FE0
ENDCHAR
STARTCHAR s
ENCODING 115
SWIDTH 578 0
DWIDTH 14 0
BBX 14 16 0 0
BITMAP
1FE0
7818
F7F8
F7FC
F7FC
F03C
FFDC
FFDC
FFDC
F81C
F03C
FFFC
FFFC
FFF8
7FF8
1FE0
ENDCHAR
STARTCHAR t
ENCODING 116
SWIDTH 578 0
DWIDTH 14 0
BBX 14 16 0 0
BITMAP
1FE0
7018
FEF8
FEFC
FEFC
FEFC
FEFC
FEFC
FEFC
FEFC
FEFC
FFFC
FFFC
FFF8
7FF8
1FE0
ENDCHAR
STARTCHAR u
ENCODING 117
SWIDTH 578 0
DWIDTH 14 0
BBX 14 16 0 0
BITMAP
1FE0
77D8
F7D8
F7DC
F7DC
F7DC
F7DC
F7DC
F7DC
F01C
F83C
FFFC
FFFC
FFF8
7FF8
1FE0
ENDCHAR
STARTCHAR v
ENCODING 118
SWIDTH 578 0
DWIDTH 14 0
BBX 14 16 0 0
BITMAP
1FE0
77D8
F798
F39C
FBBC
FBBC
FB3C
F97C
FD7C
FC7C
FEFC
FFFC
FFFC
FFF8
7FF8
1FE0
ENDCHAR
STARTCHAR w
ENCODING 119
SWIDTH 578 0
DWIDTH 14 0
BBX 14 16 0 0
BITMAP
1FF0
6EE8
ECC8
ECCC
ECCC
ED5C
ED5C
E55C
E55C
E11C
F3BC
FFFC
FFFC
FFF8
7FF8
1FE0
ENDCHAR
STARTCHAR x
ENCODING 120
SWIDTH 578 0
DWIDTH 14 0
BBX 14 16 0 0
BITMAP
1FE0
77D8
F398
FBBC
FD7C
FE7C
FC7C
FD3C
FBBC
F39C
F7DC
FFFC
FFFC
FFF8
7FF8
1FE0
ENDCHAR
STARTCHAR y
ENCODING 121
SWIDTH 578 0
DWIDTH 14 0
BBX 14 16 0 0
BITMAP
1FE0
7398
FBB8
FBBC
F93C
FD7C
FC7C
FEFC
FEFC
FEFC
FEFC
FFFC
FFFC
FFF8
7FF8
1FE0
ENDCHAR
STARTCHAR z
ENCODING 122
SWIDTH 578 0
DWIDTH 14 0
BBX 14 16 0 0
BITMAP
1FE0
7838
FFB8
FF7C
FE7C
FEFC
FCFC
FDFC
FBFC
F83C
F83C
FFFC
FFFC
FFF8
7FF8
1FE0
ENDCHAR
STARTCHAR braceleft
ENCODING 123
SWIDTH 484 0
DWIDTH 12 0
BBX 12 16 0 0
BITMAP
1F80
78E0
F3E0
F7F0
F7F0
F7F0
C7F0
F7F0
F7F0
F7F0
F3F0
F8F0
FFF0
FFE0
7FC0
1F80
ENDCHAR
STARTCHAR bar
ENCODING 124
SWIDTH 484 0
DWIDTH 12 0
BBX 12 16 0 0
BITMAP
1B80
7BE0
FBE0
FBF0
FBF0
FBF0
FBF0
FBF0
FBF0
FBF0
FBF0
FBF0
FFF0
FFE0
7FC0
1F80
ENDCHAR
STARTCHAR braceright
ENCODING 125
SWIDTH 484 0
DWIDTH 12 0
BBX 12 16 0 0
BITMAP
1F80
71E0
FDE0
FDF0
FDF0
FCF0
FE30
FDF0
FDF0
FDF0
FDF0
F1F0
FFF0
FFE0
7FC0
1F80
ENDCHAR
STARTCHAR asciitilde
ENCODING 126
SWIDTH 578 0
DWIDTH 14 0
BBX 14 16 0 0
BITMAP
1FE0
7FF8
FFF8
FFFC
F0BC
F63C
FFFC
FFFC
FFFC
FFFC
FFFC
FFFC
FFFC
FFF8
7FF8
1FE0
ENDCHAR
STARTCHAR uni00A0
ENCODING 160
SWIDTH 151 0
DWIDTH 4 0
BBX 1 1 0 0
BITMAP
00
ENDCHAR
STARTCHAR exclamdown
ENCODING 161
SWIDTH 424 0
DWIDTH 10 0
BBX 10 16 0 0
BITMAP
1F00
7B80
FFC0
FBC0
FBC0
FBC0
FBC0
FBC0
FBC0
FBC0
FBC0
FFC0
FFC0
FFC0
7F80
1E00
ENDCHAR
STARTCHAR cent
ENCODING 162
SWIDTH 578 0
DWIDTH 14 0
BBX 14 16 0 0
BITMAP
1FE0
7EF8
F838
F2BC
F6FC
F6FC
F6FC
F6FC
F2FC
F83C
FEFC
FEFC
FFFC
FFF8
7FF8
1FE0
ENDCHAR
STARTCHAR sterling
ENCODING 163
SWIDTH 578 0
DWIDTH 14 0
BBX 14 16 0 0
BITMAP
1FE0
7C78
FBB8
FBBC
FBFC
FBFC
F07C
FBFC
FBFC
F83C
F83C
FFFC
FFFC
FFF8
7FF8
1FE0
ENDCHAR
STARTCHAR currency
ENCODING 164
SWIDTH 578 0
DWIDTH 14 0
BBX 14 16 0 0
BITMAP
1FE0
77D8
F038
FBBC
FBBC
FBBC
FBBC
F83C
F7DC
FFFC
FFFC
FFFC
FFFC
FFF8
7FF8
1FE0
ENDCHAR
STARTCHAR yen
ENCODING 165
SWIDTH 578 0
DWIDTH 14 0
BBX 14 16 0 0
BITMAP
1FE0
77B8
F3B8
FB3C
FB7C
F97C
FCFC
F87C
FCFC
FCFC
FCFC
FFFC
FFFC
FFF8
7FF8
1FE0
ENDCHAR
STARTCHAR brokenbar
ENCODING 166
SWIDTH 484 0
DWIDTH 12 0
BBX 12 16 0 0
BITMAP
1F80
7BE0
FBE0
FBF0
FBF0
FFF0
FBF0
FBF0
FBF0
FBF0
FBF0
FFF0
FFF0
FFE0
7FC0
1F80
ENDCHAR
STARTCHAR section
ENCODING 167
SWIDTH 578 0
DWIDTH 14 0
BBX 14 16 0 0
BITMAP
1FE0
7838
F7F8
F7FC
F07C
FB7C
FB7C
F87C
FFBC
FFBC
FFBC
F03C
FFFC
FFF8
7FF8
1FE0
ENDCHAR
STARTCHAR dieresis
ENCODING 168
SWIDTH 388 0
DWIDTH 9 0
BBX 9 7 0 0
BITMAP
3E00
7F00
FF80
C980
C980
FF80
7F00
ENDCHAR
STARTCHAR copyright
ENCODING 169
SWIDTH 578 0
DWIDTH 14 0
BBX 14 16 0 0
BITMAP
1FE0
7838
E7D8
E86C
DBFC
DBF4
FBF4
DBF4
DBFC
E86C
E7DC
F83C
FFFC
FFF8
7FF8
1FE0
ENDCHAR
STARTCHAR ordfeminine
ENCODING 170
SWIDTH 578 0
DWIDTH 14 0
BBX 14 16 0 0
BITMAP
1FE0
7838
FFB8
FFBC
FFBC
F03C
F3BC
F3BC
F83C
FFFC
FFFC
FFFC
FFFC
FFF8
7FF8
1FE0
ENDCHAR
STARTCHAR guillemotleft
ENCODING 171
SWIDTH 578 0
DWIDTH 14 0
BBX 14 16 0 0
BITMAP
1FE0
7FF8
FDB8
FD7C
FB7C
F6FC
EDFC
F6FC
FAFC
FB7C
FDBC
FFFC
FFFC
FFF8
7FF8
1FE0
ENDCHAR
STARTCHAR uni00AD
ENCODING 173
SWIDTH 428 0
DWIDTH 10 0
BBX 10 16 0 0
BITMAP
1F00
7F80
FFC0
FFC0
E1C0
FFC0
FFC0
FFC0
FFC0
FFC0
FFC0
FFC0
FFC0
FFC0
7F80
1F00
ENDCHAR
STARTCHAR registered
ENCODING 174
SWIDTH 578 0
DWIDTH 14 0
BBX 14 16 0 0
BITMAP
1FE0
7838
E7D8
E86C
DBBC
DBB4
F874
DBB4
DBBC
EBAC
E7DC
F83C
FFFC
FFF8
7FF8
1FE0
ENDCHAR
STARTCHAR macron
ENCODING 175
SWIDTH 428 0
DWIDTH 10 0
BBX 10 7 0 0
BITMAP
3F00
7F80
FFC0
E1C0
E1C0
FFC0
7F80
ENDCHAR
STARTCHAR degree
ENCODING 176
SWIDTH 428 0
DWIDTH 10 0
BBX 10 16 0 0
BITMAP
1F00
7180
EDC0
EDC0
E1C0
FFC0
FFC0
FFC0
FFC0
FFC0
FFC0
FFC0
FFC0
FFC0
7F80
1F00
ENDCHAR
STARTCHAR plusminus
ENCODING 177
SWIDTH 428 0
DWIDTH 10 0
BBX 10 16 0 0
BITMAP
1F00
7B80
FBC0
C0C0
C0C0
FBC0
FBC0
FFC0
E1C0
FFC0
FFC0
FFC0
FFC0
FFC0
7F80
1F00
ENDCHAR
STARTCHAR uni00B2
ENCODING 178
SWIDTH 578 0
DWIDTH 14 0
BBX 14 16 0 0
BITMAP
1FE0
7878
FB38
FF3C
F87C
FBFC
F87C
FFFC
FFFC
FFFC
FFFC
FFFC
FFFC
FFF8
7FF8
1FE0
ENDCHAR
STARTCHAR uni00B3
ENCODING 179
SWIDTH 578 0
DWIDTH 14 0
BBX 14 16 0 0
BITMAP
1FE0
7838
FBB8
FFBC
FE3C
FBBC
F83C
FFFC
FFFC
FFFC
FFFC
FFFC
FFFC
FFF8
7FF8
1FE0
ENDCHAR
STARTCHAR acute
ENCODING 180
SWIDTH 308 0
DWIDTH 7 0
BBX 7 8 0 0
BITMAP
3C
7E
66
EE
EE
DC
F8
78
ENDCHAR
STARTCHAR uni00B5
ENCODING 181
SWIDTH 578 0
DWIDTH 14 0
BBX 14 16 0 0
BITMAP
1FE0
67D8
E7D8
E7DC
E7DC
E7DC
E7DC
E7DC
E7DC
E01C
E03C
E7FC
FFFC
FFF8
7FF8
1FE0
ENDCHAR
STARTCHAR paragraph
ENCODING 182
SWIDTH 578 0
DWIDTH 14 0
BBX 14 16 0 0
BITMAP
1FE0
7038
F0B8
F0BC
F0BC
F0BC
FEBC
FEBC
FEBC
FEBC
FFFC
FFFC
FFFC
FFF8
7FF8
1FE0
ENDCHAR
STARTCHAR periodcentered
ENCODING 183
SWIDTH 428 0
DWIDTH 10 0
BBX 10 16 0 0
BITMAP
1F00
7F80
FFC0
FFC0
F3C0
FFC0
FFC0
FFC0
FFC0
FFC0
FFC0
FFC0
FFC0
FFC0
7F80
1F00
ENDCHAR
STARTCHAR cedilla
ENCODING 184
SWIDTH 101 0
DWIDTH 2 0
BBX 2 4 0 -4
BITMAP
40
80
80
40
ENDCHAR
STARTCHAR uni00B9
ENCODING 185
SWIDTH 578 0
DWIDTH 14 0
BBX 14 16 0 0
BITMAP
1FE0
78F8
FAF8
FEFC
FEFC
FEFC
FEFC
FFFC
FFFC
FFFC
FFFC
FFFC
FFFC
FFF8
7FF8
1FE0
ENDCHAR
STARTCHAR ordmasculine
ENCODING 186
SWIDTH 578 0
DWIDTH 14 0
BBX 14 16 0 0
BITMAP
1FE0
7838
F3D8
F7DC
F7DC
F7DC
F7DC
F3DC
F83C
FFFC
FFFC
FFFC
FFFC
FFF8
7FF8
1FE0
ENDCHAR
STARTCHAR guillemotright
ENCODING 187
SWIDTH 578 0
DWIDTH 14 0
BBX 14 16 0 0
BITMAP
1FE0
7FF8
F6F8
FEFC
FB7C
FDBC
FEFC
FDBC
FF7C
FBFC
F6FC
FFFC
FFFC
FFF8
7FF8
1FE0
ENDCHAR
STARTCHAR onequarter
ENCODING 188
SWIDTH 578 0
DWIDTH 14 0
BBX 14 16 0 0
BITMAP
3FE0
46F8
D4F8
E5FC
E5FC
E54C
E94C
FB4C
FB4C
FB04
F3CC
FFCC
FFFC
FFF8
7FF8
1FE0
ENDCHAR
STARTCHAR onehalf
ENCODING 189
SWIDTH 578 0
DWIDTH 14 0
BBX 14 16 0 0
BITMAP
3FE0
46F8
D4F8
E5FC
E59C
E50C
E9E4
FB0C
FB7C
FB0C
F30C
FFFC
FFFC
FFF8
7FF8
1FE0
ENDCHAR
STARTCHAR threequarters
ENCODING 190
SWIDTH 578 0
DWIDTH 14 0
BBX 14 16 0 0
BITMAP
3FE0
46F8
D4F8
E5FC
E58C
E504
E9F4
FB84
FBF4
FB04
F30C
FFFC
FFFC
FFF8
7FF8
1FE0
ENDCHAR
STARTCHAR questiondown
ENCODING 191
SWIDTH 578 0
DWIDTH 14 0
BBX 14 16 0 0
BITMAP
1FE0
7EF8
FFF8
FEFC
FEFC
F8FC
F7FC
F7FC
F7DC
F01C
FFFC
FFFC
FFFC
FFF8
7FF8
1FE0
ENDCHAR
STARTCHAR Agrave
ENCODING 192
SWIDTH 578 0
DWIDTH 14 0
BBX 14 23 0 0
BITMAP
1F00
3F80
3B80
1980
1D80
0DC0
0FC0
1FE0
7838
F3B8
F7BC
F79C
F79C
F01C
F7DC
F7DC
F7DC
E7DC
FFFC
FFFC
FFF8
7FF8
1FE0
ENDCHAR
STARTCHAR Aacute
ENCODING 193
SWIDTH 578 0
DWIDTH 14 0
BBX 14 23 0 0
BITMAP
03E0
07F0
0770
0660
06E0
0EC0
0FC0
1FE0
7838
F3B8
F7BC
F79C
F79C
F01C
F7DC
F7DC
F7DC
E7DC
FFFC
FFFC
FFF8
7FF8
1FE0
ENDCHAR
STARTCHAR Acircumflex
ENCODING 194
SWIDTH 578 0
DWIDTH 14 0
BBX 14 24 0 0
BITMAP
0100
07C0
0FC0
0DE0
0DE0
1D60
1B70
1FE0
1FE0
7838
F3B8
F7BC
F79C
F79C
F01C
F7DC
F7DC
F7DC
E7DC
FFFC
FFFC
FFF8
7FF8
1FE0
ENDCHAR
STARTCHAR Atilde
ENCODING 195
SWIDTH 578 0
DWIDTH 14 0
BBX 14 23 0 0
BITMAP
0380
0FE0
1FF0
3FF0
3FF0
38B0
3B70
1FE0
7838
F3B8
F7BC
F79C
F79C
F01C
F7DC
F7DC
F7DC
E7DC
FFFC
FFFC
FFF8
7FF8
1FE0
ENDCHAR
STARTCHAR Adieresis
ENCODING 196
SWIDTH 578 0
DWIDTH 14 0
BBX 14 22 0 0
BITMAP
07C0
1FE0
1FF0
1B30
1B30
1FE0
1FE0
7838
F3B8
F7BC
F79C
F79C
F01C
F7DC
F7DC
F7DC
E7DC
FFFC
FFFC
FFF8
7FF8
1FE0
ENDCHAR
STARTCHAR Aring
ENCODING 197
SWIDTH 578 0
DWIDTH 14 0
BBX 14 22 0 0
BITMAP
0FC0
1FE0
1860
1B70
1870
1FE0
1FE0
7838
F3B8
F7BC
F79C
F79C
F01C
F7DC
F7DC
F7DC
E7DC
FFFC
FFFC
FFF8
7FF8
1FE0
ENDCHAR
STARTCHAR AE
ENCODING 198
SWIDTH 578 0
DWIDTH 14 0
BBX 14 16 0 0
BITMAP
1FE0
7018
F6F8
F6FC
F6FC
E61C
E6FC
EEFC
E0FC
EE1C
EE1C
FFFC
FFFC
FFF8
7FF8
1FE0
ENDCHAR
STARTCHAR Ccedilla
ENCODING 199
SWIDTH 578 0
DWIDTH 14 0
BBX 14 16 0 0
BITMAP
1FE0
7038
F7F8
F7FC
F7FC
F7FC
F7FC
F7FC
F7FC
F03C
FA3C
FCFC
FBFC
F8F8
7FF8
1FE0
ENDCHAR
STARTCHAR Egrave
ENCODING 200
SWIDTH 578 0
DWIDTH 14 0
BBX 14 23 0 0
BITMAP
0F00
1F80
3980
1D80
1DC0
0FC0
07C0
1FE0
7838
FBF8
FBFC
FBFC
F83C
FBFC
FBFC
FBFC
F81C
F81C
FFFC
FFFC
FFF8
7FF8
1FE0
ENDCHAR
STARTCHAR Eacute
ENCODING 201
SWIDTH 578 0
DWIDTH 14 0
BBX 14 23 0 0
BITMAP
03E0
03F0
0770
0770
06E0
06E0
07C0
1FE0
7838
FBF8
FBFC
FBFC
F83C
FBFC
FBFC
FBFC
F81C
F81C
FFFC
FFFC
FFF8
7FF8
1FE0
ENDCHAR
STARTCHAR Ecircumflex
ENCODING 202
SWIDTH 578 0
DWIDTH 14 0
BBX 14 24 0 0
BITMAP
0100
07C0
07C0
0FE0
0D60
1D70
1FF0
1FF0
1FE0
7838
FBF8
FBFC
FBFC
F83C
FBFC
FBFC
FBFC
F81C
F81C
FFFC
FFFC
FFF8
7FF8
1FE0
ENDCHAR
STARTCHAR Edieresis
ENCODING 203
SWIDTH 578 0
DWIDTH 14 0
BBX 14 22 0 0
BITMAP
07C0
0FE0
1FF0
1930
1930
1FF0
1FE0
7838
FBF8
FBFC
FBFC
F83C
FBFC
FBFC
FBFC
F81C
F81C
FFFC
FFFC
FFF8
7FF8
1FE0
ENDCHAR
STARTCHAR Igrave
ENCODING 204
SWIDTH 578 0
DWIDTH 14 0
BBX 14 23 0 0
BITMAP
0F00
1F80
1980
1DC0
1DC0
0EC0
07C0
1FE0
7018
FEF8
FEFC
FEFC
FEFC
FEFC
FEFC
FEFC
F01C
F01C
FFFC
FFFC
FFF8
7FF8
1FE0
ENDCHAR
STARTCHAR Iacute
ENCODING 205
SWIDTH 578 0
DWIDTH 14 0
BBX 14 23 0 0
BITMAP
03E0
03F0
0770
0770
06E0
06E0
07C0
1FE0
7018
FEF8
FEFC
FEFC
FEFC
FEFC
FEFC
FEFC
F01C
F01C
FFFC
FFFC
FFF8
7FF8
1FE0
ENDCHAR
STARTCHAR Icircumflex
ENCODING 206
SWIDTH 578 0
DWIDTH 14 0
BBX 14 24 0 0
BITMAP
0180
07C0
07C0
0EE0
0D60
1D70
1DB0
1FF0
1FE0
7018
FEF8
FEFC
FEFC
FEFC
FEFC
FEFC
FEFC
F01C
F01C
FFFC
FFFC
FFF8
7FF8
1FE0
ENDCHAR
STARTCHAR Idieresis
ENCODING 207
SWIDTH 578 0
DWIDTH 14 0
BBX 14 22 0 0
BITMAP
07C0
0FE0
1FF0
1930
1930
1FF0
1FE0
7018
FEF8
FEFC
FEFC
FEFC
FEFC
FEFC
FEFC
F01C
F01C
FFFC
FFFC
FFF8
7FF8
1FE0
ENDCHAR
STARTCHAR Eth
ENCODING 208
SWIDTH 578 0
DWIDTH 14 0
BBX 14 16 0 0
BITMAP
1FE0
7018
F7D8
F7DC
F7DC
E3DC
F7DC
F7DC
F7DC
F01C
F03C
FFFC
FFFC
FFF8
7FF8
1FE0
ENDCHAR
STARTCHAR Ntilde
ENCODING 209
SWIDTH 578 0
DWIDTH 14 0
BBX 14 23 0 0
BITMAP
0300
1FE0
1FF0
3FF0
3FF0
3170
3770
1FE0
7038
F7D8
F7DC
F7DC
F7DC
F7DC
F7DC
F7DC
F7DC
F7DC
FFFC
FFFC
FFF8
7FF8
1FE0
ENDCHAR
STARTCHAR Ograve
ENCODING 210
SWIDTH 578 0
DWIDTH 14 0
BBX 14 23 0 0
BITMAP
0F00
1F80
3980
1D80
1DC0
0FC0
0FC0
1FE0
7018
F7D8
F7DC
F7DC
F7DC
F7DC
F7DC
F7DC
F01C
F83C
FFFC
FFFC
FFF8
7FF8
1FE0
ENDCHAR
STARTCHAR Oacute
ENCODING 211
SWIDTH 578 0
DWIDTH 14 0
BBX 14 23 0 0
BITMAP
03E0
03F0
0770
0770
06E0
0EE0
07C0
1FE0
7018
F7D8
F7DC
F7DC
F7DC
F7DC
F7DC
F7DC
F01C
F83C
FFFC
FFFC
FFF8
7FF8
1FE0
ENDCHAR
STARTCHAR Ocircumflex
ENCODING 212
SWIDTH 578 0
DWIDTH 14 0
BBX 14 24 0 0
BITMAP
0100
07C0
07C0
0FE0
0D60
1D60
1B70
1FF0
1FE0
7018
F7D8
F7DC
F7DC
F7DC
F7DC
F7DC
F7DC
F01C
F83C
FFFC
FFFC
FFF8
7FF8
1FE0
ENDCHAR
STARTCHAR Otilde
ENCODING 213
SWIDTH 578 0
DWIDTH 14 0
BBX 14 23 0 0
BITMAP
0380
0FE0
1FF0
3FF0
3FF8
38B8
1B70
1FF0
7018
F7D8
F7DC
F7DC
F7DC
F7DC
F7DC
F7DC
F01C
F83C
FFFC
FFFC
FFF8
7FF8
1FE0
ENDCHAR
STARTCHAR Odieresis
ENCODING 214
SWIDTH 578 0
DWIDTH 14 0
BBX 14 22 0 0
BITMAP
07C0
0FE0
1FF0
1930
1930
1FF0
1FE0
7018
F7D8
F7DC
F7DC
F7DC
F7DC
F7DC
F7DC
F01C
F83C
FFFC
FFFC
FFF8
7FF8
1FE0
ENDCHAR
STARTCHAR multiply
ENCODING 215
SWIDTH 578 0
DWIDTH 14 0
BBX 14 16 0 0
BITMAP
1FE0
7FF8
FFF8
FFFC
FD7C
FEFC
FD7C
FBBC
FFFC
FFFC
FFFC
FFFC
FFFC
FFF8
7FF8
1FE0
ENDCHAR
STARTCHAR Oslash
ENCODING 216
SWIDTH 578 0
DWIDTH 14 0
BBX 14 16 0 0
BITMAP
1FE0
7038
F798
F75C
F75C
F6DC
F4DC
F5DC
FBDC
F01C
F83C
FFFC
FFFC
FFF8
7FF8
1FE0
ENDCHAR
STARTCHAR Ugrave
ENCODING 217
SWIDTH 578 0
DWIDTH 14 0
BBX 14 23 0 0
BITMAP
0F00
1F80
3980
1D80
1DC0
0FC0
07C0
1FE0
77D8
F7D8
F7DC
F7DC
F7DC
F7DC
F7DC
F7DC
F01C
F83C
FFFC
FFFC
FFF8
7FF8
1FE0
ENDCHAR
STARTCHAR Uacute
ENCODING 218
SWIDTH 578 0
DWIDTH 14 0
BBX 14 23 0 0
BITMAP
03E0
03F0
0770
0770
06E0
06E0
07C0
1FE0
77D8
F7D8
F7DC
F7DC
F7DC
F7DC
F7DC
F7DC
F01C
F83C
FFFC
FFFC
FFF8
7FF8
1FE0
ENDCHAR
STARTCHAR Ucircumflex
ENCODING 219
SWIDTH 578 0
DWIDTH 14 0
BBX 14 24 0 0
BITMAP
0100
07C0
07C0
0FE0
0D60
1D70
1FF0
1FF0
1FE0
77D8
F7D8
F7DC
F7DC
F7DC
F7DC
F7DC
F7DC
F01C
F83C
FFFC
FFFC
FFF8
7FF8
1FE0
ENDCHAR
STARTCHAR Udieresis
ENCODING 220
SWIDTH 578 0
DWIDTH 14 0
BBX 14 22 0 0
BITMAP
07C0
0FE0
1FF0
1930
1930
1FF0
1FE0
77D8
F7D8
F7DC
F7DC
F7DC
F7DC
F7DC
F7DC
F01C
F83C
FFFC
FFFC
FFF8
7FF8
1FE0
ENDCHAR
STARTCHAR Yacute
ENCODING 221
SWIDTH 578 0
DWIDTH 14 0
BBX 14 23 0 0
BITMAP
03E0
03F0
0770
0770
06E0
0EE0
07C0
1FE0
7398
FBB8
FBBC
F93C
FD7C
FC7C
FEFC
FEFC
FEFC
FEFC
FFFC
FFFC
FFF8
7FF8
1FE0
ENDCHAR
STARTCHAR Thorn
ENCODING 222
SWIDTH 578 0
DWIDTH 14 0
BBX 14 16 0 0
BITMAP
1FE0
73F8
F3F8
F01C
F3DC
F3DC
F3DC
F03C
F3FC
F3FC
F3FC
FFFC
FFFC
FFF8
7FF8
1FE0
ENDCHAR
STARTCHAR germandbls
ENCODING 223
SWIDTH 578 0
DWIDTH 14 0
BBX 14 16 0 0
BITMAP
1FE0
7038
F7B8
F79C
F7BC
F73C
F7DC
F7DC
F7DC
F41C
F43C
FFFC
FFFC
FFF8
7FF8
1FE0
ENDCHAR
STARTCHAR agrave
ENCODING 224
SWIDTH 578 0
DWIDTH 14 0
BBX 14 23 0 0
BITMAP
0F00
1F80
3980
1D80
1DC0
0FC0
0FC0
1FE0
7038
FFB8
FFBC
FFBC
FFBC
F03C
E7BC
E7BC
F03C
F03C
FFFC
FFFC
FFF8
7FF8
1FE0
ENDCHAR
STARTCHAR aacute
ENCODING 225
SWIDTH 578 0
DWIDTH 14 0
BBX 14 23 0 0
BITMAP
03E0
03F0
0770
0770
06E0
06E0
07C0
1FE0
7038
FFB8
FFBC
FFBC
FFBC
F03C
E7BC
E7BC
F03C
F03C
FFFC
FFFC
FFF8
7FF8
1FE0
ENDCHAR
STARTCHAR acircumflex
ENCODING 226
SWIDTH 578 0
DWIDTH 14 0
BBX 14 24 0 0
BITMAP
0100
07C0
07C0
0FE0
0D60
1D70
1BF0
1FF0
1FE0
7038
FFB8
FFBC
FFBC
FFBC
F03C
E7BC
E7BC
F03C
F03C
FFFC
FFFC
FFF8
7FF8
1FE0
ENDCHAR
STARTCHAR atilde
ENCODING 227
SWIDTH 578 0
DWIDTH 14 0
BBX 14 23 0 0
BITMAP
0380
0FE0
1FF0
3FF8
3FF8
38B8
1B70
1FF0
7038
FFB8
FFBC
FFBC
FFBC
F03C
E7BC
E7BC
F03C
F03C
FFFC
FFFC
FFF8
7FF8
1FE0
ENDCHAR
STARTCHAR adieresis
ENCODING 228
SWIDTH 578 0
DWIDTH 14 0
BBX 14 22 0 0
BITMAP
07C0
0FE0
1FF0
1930
1930
1FF0
1FE0
7038
FFB8
FFBC
FFBC
FFBC
F03C
E7BC
E7BC
F03C
F03C
FFFC
FFFC
FFF8
7FF8
1FE0
ENDCHAR
STARTCHAR aring
ENCODING 229
SWIDTH 578 0
DWIDTH 14 0
BBX 14 22 0 0
BITMAP
07C0
0FE0
1C70
1B70
1870
1FF0
1FE0
7038
FFB8
FFBC
FFBC
FFBC
F03C
E7BC
E7BC
F03C
F03C
FFFC
FFFC
FFF8
7FF8
1FE0
ENDCHAR
STARTCHAR ae
ENCODING 230
SWIDTH 578 0
DWIDTH 14 0
BBX 14 16 0 0
BITMAP
1FE0
7018
F6F8
F6FC
F6FC
E61C
E6FC
EEFC
E0FC
EE1C
EE1C
FFFC
FFFC
FFF8
7FF8
1FE0
ENDCHAR
STARTCHAR ccedilla
ENCODING 231
SWIDTH 578 0
DWIDTH 14 0
BBX 14 16 0 0
BITMAP
1FE0
7038
F7F8
F7FC
F7FC
F7FC
F7FC
F7FC
F7FC
F03C
FA3C
FCFC
FBFC
F8F8
7FF8
1FE0
ENDCHAR
STARTCHAR egrave
ENCODING 232
SWIDTH 578 0
DWIDTH 14 0
BBX 14 23 0 0
BITMAP
1F00
1F80
3B80
1D80
1DC0
0FC0
0FC0
1FE0
7038
F7B8
F7BC
F7BC
F03C
F7FC
F7FC
F7FC
F03C
FFFC
FFFC
FFFC
FFF8
7FF8
1FE0
ENDCHAR
STARTCHAR eacute
ENCODING 233
SWIDTH 578 0
DWIDTH 14 0
BBX 14 23 0 0
BITMAP
03E0
07E0
0770
06E0
0EE0
0EC0
0FC0
1FE0
7038
F7B8
F7BC
F7BC
F03C
F7FC
F7FC
F7FC
F03C
FFFC
FFFC
FFFC
FFF8
7FF8
1FE0
ENDCHAR
STARTCHAR ecircumflex
ENCODING 234
SWIDTH 578 0
DWIDTH 14 0
BBX 14 24 0 0
BITMAP
0100
0780
0FC0
0EC0
1EE0
1B60
1B60
1FE0
1FE0
7038
F7B8
F7BC
F7BC
F03C
F7FC
F7FC
F7FC
F03C
FFFC
FFFC
FFFC
FFF8
7FF8
1FE0
ENDCHAR
STARTCHAR edieresis
ENCODING 235
SWIDTH 578 0
DWIDTH 14 0
BBX 14 22 0 0
BITMAP
0780
1FE0
3FE0
3370
3360
1FE0
1FE0
7038
F7B8
F7BC
F7BC
F03C
F7FC
F7FC
F7FC
F03C
FFFC
FFFC
FFFC
FFF8
7FF8
1FE0
ENDCHAR
STARTCHAR igrave
ENCODING 236
SWIDTH 578 0
DWIDTH 14 0
BBX 14 23 0 0
BITMAP
0F00
1F80
3980
1D80
1DC0
0EC0
07C0
1FE0
7018
FEF8
FEFC
FEFC
FEFC
FEFC
FEFC
FEFC
F01C
F01C
FFFC
FFFC
FFF8
7FF8
1FE0
ENDCHAR
STARTCHAR iacute
ENCODING 237
SWIDTH 578 0
DWIDTH 14 0
BBX 14 23 0 0
BITMAP
03E0
03F0
0770
0770
06E0
06E0
07C0
1FE0
7018
FEF8
FEFC
FEFC
FEFC
FEFC
FEFC
FEFC
F01C
F01C
FFFC
FFFC
FFF8
7FF8
1FE0
ENDCHAR
STARTCHAR icircumflex
ENCODING 238
SWIDTH 578 0
DWIDTH 14 0
BBX 14 24 0 0
BITMAP
0100
07C0
07C0
0FE0
0D60
1D70
1FF0
1FF0
1FE0
7018
FEF8
FEFC
FEFC
FEFC
FEFC
FEFC
FEFC
F01C
F01C
FFFC
FFFC
FFF8
7FF8
1FE0
ENDCHAR
STARTCHAR idieresis
ENCODING 239
SWIDTH 578 0
DWIDTH 14 0
BBX 14 22 0 0
BITMAP
07C0
0FE0
1FF0
1930
1930
1FF0
1FE0
7018
FEF8
FEFC
FEFC
FEFC
FEFC
FEFC
FEFC
F01C
F01C
FFFC
FFFC
FFF8
7FF8
1FE0
ENDCHAR
STARTCHAR eth
ENCODING 240
SWIDTH 578 0
DWIDTH 14 0
BBX 14 16 0 0
BITMAP
1FE0
7018
F7D8
F7DC
F7DC
E3DC
F7DC
F7DC
F7DC
F01C
F03C
FFFC
FFFC
FFF8
7FF8
1FE0
ENDCHAR
STARTCHAR ntilde
ENCODING 241
SWIDTH 578 0
DWIDTH 14 0
BBX 14 23 0 0
BITMAP
0300
1FE0
3FF0
3FF0
3FF0
3170
3770
1FE0
7038
F7D8
F7DC
F7DC
F7DC
F7DC
F7DC
F7DC
F7DC
F7DC
FFFC
FFFC
FFF8
7FF8
1FE0
ENDCHAR
STARTCHAR oacute
ENCODING 243
SWIDTH 578 0
DWIDTH 14 0
BBX 14 23 0 0
BITMAP
03E0
07F0
0770
06E0
0EE0
0EC0
0FC0
1FE0
7018
F7D8
F7DC
F7DC
F7DC
F7DC
F7DC
F7DC
F01C
F83C
FFFC
FFFC
FFF8
7FF8
1FE0
ENDCHAR
STARTCHAR ocircumflex
ENCODING 244
SWIDTH 578 0
DWIDTH 14 0
BBX 14 24 0 0
BITMAP
0100
07C0
07C0
0FE0
0D60
1D70
1FF0
1FF0
1FE0
7018
F7D8
F7DC
F7DC
F7DC
F7DC
F7DC
F7DC
F01C
F83C
FFFC
FFFC
FFF8
7FF8
1FE0
ENDCHAR
STARTCHAR otilde
ENCODING 245
SWIDTH 578 0
DWIDTH 14 0
BBX 14 23 0 0
BITMAP
0380
0FE0
1FF0
3FF0
3FF8
38B0
1B70
1FF0
7018
F7D8
F7DC
F7DC
F7DC
F7DC
F7DC
F7DC
F01C
F83C
FFFC
FFFC
FFF8
7FF8
1FE0
ENDCHAR
STARTCHAR odieresis
ENCODING 246
SWIDTH 578 0
DWIDTH 14 0
BBX 14 22 0 0
BITMAP
07C0
0FE0
1FF0
1930
1930
1FF0
1FE0
7018
F7D8
F7DC
F7DC
F7DC
F7DC
F7DC
F7DC
F01C
F83C
FFFC
FFFC
FFF8
7FF8
1FE0
ENDCHAR
STARTCHAR divide
ENCODING 247
SWIDTH 428 0
DWIDTH 10 0
BBX 10 16 0 0
BITMAP
1F00
7F80
F3C0
FFC0
E1C0
FFC0
F3C0
FFC0
FFC0
FFC0
FFC0
FFC0
FFC0
FFC0
7F80
1F00
ENDCHAR
STARTCHAR oslash
ENCODING 248
SWIDTH 578 0
DWIDTH 14 0
BBX 14 16 0 0
BITMAP
1FE0
7038
F798
F75C
F75C
F6DC
F4DC
F5DC
FBDC
F01C
F83C
FFFC
FFFC
FFF8
7FF8
1FE0
ENDCHAR
STARTCHAR ugrave
ENCODING 249
SWIDTH 578 0
DWIDTH 14 0
BBX 14 23 0 0
BITMAP
0F00
1F80
3980
1D80
1DC0
0EC0
07C0
1FE0
77D8
F7D8
F7DC
F7DC
F7DC
F7DC
F7DC
F7DC
F01C
F83C
FFFC
FFFC
FFF8
7FF8
1FE0
ENDCHAR
STARTCHAR uacute
ENCODING 250
SWIDTH 578 0
DWIDTH 14 0
BBX 14 23 0 0
BITMAP
03E0
03F0
0770
0770
06E0
06E0
07C0
1FE0
77D8
F7D8
F7DC
F7DC
F7DC
F7DC
F7DC
F7DC
F01C
F83C
FFFC
FFFC
FFF8
7FF8
1FE0
ENDCHAR
STARTCHAR ucircumflex
ENCODING 251
SWIDTH 578 0
DWIDTH 14 0
BBX 14 24 0 0
BITMAP
0100
07C0
07C0
0FE0
0D60
1D70
1FF0
1FF0
1FE0
77D8
F7D8
F7DC
F7DC
F7DC
F7DC
F7DC
F7DC
F01C
F83C
FFFC
FFFC
FFF8
7FF8
1FE0
ENDCHAR
STARTCHAR udieresis
ENCODING 252
SWIDTH 578 0
DWIDTH 14 0
BBX 14 22 0 0
BITMAP
07C0
0FE0
1FF0
1930
1930
1FF0
1FE0
77D8
F7D8
F7DC
F7DC
F7DC
F7DC
F7DC
F7DC
F01C
F83C
FFFC
FFFC
FFF8
7FF8
1FE0
ENDCHAR
STARTCHAR yacute
ENCODING 253
SWIDTH 578 0
DWIDTH 14 0
BBX 14 23 0 0
BITMAP
03E0
03F0
0770
0770
06E0
0EE0
07C0
1FE0
7398
FBB8
FBBC
F93C
FD7C
FC7C
FEFC
FEFC
FEFC
FEFC
FFFC
FFFC
FFF8
7FF8
1FE0
ENDCHAR
STARTCHAR thorn
ENCODING 254
SWIDTH 578 0
DWIDTH 14 0
BBX 14 16 0 0
BITMAP
1FE0
73F8
F3F8
F01C
F3DC
F3DC
F3DC
F03C
F3FC
F3FC
F3FC
FFFC
FFFC
FFF8
7FF8
1FE0
ENDCHAR
STARTCHAR ydieresis
ENCODING 255
SWIDTH 578 0
DWIDTH 14 0
BBX 14 22 0 0
BITMAP
07C0
0FE0
1FF0
1930
1930
1FF0
1FE0
7398
FBB8
FBBC
F93C
FD7C
FC7C
FEFC
FEFC
FEFC
FEFC
FFFC
FFFC
FFF8
7FF8
1FE0
ENDCHAR
STARTCHAR Amacron
ENCODING 256
SWIDTH 578 0
DWIDTH 14 0
BBX 14 22 0 0
BITMAP
07C0
1FF0
3FF0
3870
3870
1FF0
1FE0
7838
F3B8
F7BC
F79C
F79C
F01C
F7DC
F7DC
F7DC
E7DC
FFFC
FFFC
FFF8
7FF8
1FE0
ENDCHAR
STARTCHAR amacron
ENCODING 257
SWIDTH 578 0
DWIDTH 14 0
BBX 14 22 0 0
BITMAP
07C0
1FF0
1FF0
3838
3838
1FF0
1FE0
7038
FFB8
FFBC
FFBC
FFBC
F03C
E7BC
E7BC
F03C
F03C
FFFC
FFFC
FFF8
7FF8
1FE0
ENDCHAR
STARTCHAR Abreve
ENCODING 258
SWIDTH 578 0
DWIDTH 14 0
BBX 14 22 0 0
BITMAP
07C0
1FF0
3FF0
3FF0
3870
1FF0
1FE0
7838
F3B8
F7BC
F79C
F79C
F01C
F7DC
F7DC
F7DC
E7DC
FFFC
FFFC
FFF8
7FF8
1FE0
ENDCHAR
STARTCHAR abreve
ENCODING 259
SWIDTH 578 0
DWIDTH 14 0
BBX 14 22 0 0
BITMAP
07C0
1FF0
1FF0
3FF8
3838
1FF0
1FE0
7038
FFB8
FFBC
FFBC
FFBC
F03C
E7BC
E7BC
F03C
F03C
FFFC
FFFC
FFF8
7FF8
1FE0
ENDCHAR
STARTCHAR Aogonek
ENCODING 260
SWIDTH 578 0
DWIDTH 14 0
BBX 14 16 0 0
BITMAP
1FE0
7838
F3B8
F7BC
F79C
F79C
F01C
F7DC
F7DC
F7DC
E7DC
FFBC
FFBC
FF98
7FF8
1FE0
ENDCHAR
STARTCHAR aogonek
ENCODING 261
SWIDTH 578 0
DWIDTH 14 0
BBX 14 16 0 0
BITMAP
1FE0
7038
FFB8
FFBC
FFBC
FFBC
F03C
E7BC
E7BC
F03C
F23C
FCFC
FDFC
FCF8
7FF8
1FE0
ENDCHAR
STARTCHAR Cacute
ENCODING 262
SWIDTH 578 0
DWIDTH 14 0
BBX 14 23 0 0
BITMAP
03E0
03F0
0770
0770
06E0
06E0
07C0
1FE0
7038
F7F8
F7FC
F7FC
F7FC
F7FC
F7FC
F7FC
F03C
F83C
FFFC
FFFC
FFF8
7FF8
1FE0
ENDCHAR
STARTCHAR cacute
ENCODING 263
SWIDTH 578 0
DWIDTH 14 0
BBX 14 23 0 0
BITMAP
03E0
03F0
0770
0770
06E0
06E0
07C0
1FE0
7038
F7F8
F7FC
F7FC
F7FC
F7FC
F7FC
F7FC
F03C
F83C
FFFC
FFFC
FFF8
7FF8
1FE0
ENDCHAR
STARTCHAR Ccircumflex
ENCODING 264
SWIDTH 578 0
DWIDTH 14 0
BBX 14 24 0 0
BITMAP
0100
07C0
0FC0
0DE0
0D60
1D60
1B70
1FF0
1FE0
7038
F7F8
F7FC
F7FC
F7FC
F7FC
F7FC
F7FC
F03C
F83C
FFFC
FFFC
FFF8
7FF8
1FE0
ENDCHAR
STARTCHAR ccircumflex
ENCODING 265
SWIDTH 578 0
DWIDTH 14 0
BBX 14 24 0 0
BITMAP
0100
07C0
0FC0
0DE0
0DE0
1D60
1B70
1FE0
1FE0
7038
F7F8
F7FC
F7FC
F7FC
F7FC
F7FC
F7FC
F03C
F83C
FFFC
FFFC
FFF8
7FF8
1FE0
ENDCHAR
STARTCHAR Cdotaccent
ENCODING 266
SWIDTH 578 0
DWIDTH 14 0
BBX 14 22 0 0
BITMAP
0F80
1FE0
3FF0
3DF0
3DF0
3FF0
3FE0
7038
F7F8
F7FC
F7FC
F7FC
F7FC
F7FC
F7FC
F03C
F83C
FFFC
FFFC
FFF8
7FF8
1FE0
ENDCHAR
STARTCHAR cdotaccent
ENCODING 267
SWIDTH 578 0
DWIDTH 14 0
BBX 14 22 0 0
BITMAP
0FC0
1FE0
3FF0
3CF0
3CF0
3FF0
1FE0
7038
F7F8
F7FC
F7FC
F7FC
F7FC
F7FC
F7FC
F03C
F83C
FFFC
FFFC
FFF8
7FF8
1FE0
ENDCHAR
STARTCHAR Ccaron
ENCODING 268
SWIDTH 578 0
DWIDTH 14 0
BBX 14 23 0 0
BITMAP
0DC0
1FE0
3B60
1AE0
1EE0
1EC0
1FC0
1FE0
7038
F7F8
F7FC
F7FC
F7FC
F7FC
F7FC
F7FC
F03C
F83C
FFFC
FFFC
FFF8
7FF8
1FE0
ENDCHAR
STARTCHAR ccaron
ENCODING 269
SWIDTH 578 0
DWIDTH 14 0
BBX 14 23 0 0
BITMAP
0FC0
1FE0
1B60
1B60
1DE0
1DE0
0FC0
1FE0
7038
F7F8
F7FC
F7FC
F7FC
F7FC
F7FC
F7FC
F03C
F83C
FFFC
FFFC
FFF8
7FF8
1FE0
ENDCHAR
STARTCHAR Dcaron
ENCODING 270
SWIDTH 578 0
DWIDTH 14 0
BBX 14 23 0 0
BITMAP
0FC0
1FE0
1B60
1BE0
1EE0
1EE0
0FC0
1FE0
7018
F7D8
F7DC
F7DC
F7DC
F7DC
F7DC
F7DC
F01C
F03C
FFFC
FFFC
FFF8
7FF8
1FE0
ENDCHAR
STARTCHAR dcaron
ENCODING 271
SWIDTH 578 0
DWIDTH 14 0
BBX 14 16 0 0
BITMAP
1FF0
6048
EF48
EF3C
EF3C
EF3C
EF3C
EF3C
EF3C
E03C
E07C
FFFC
FFFC
FFF8
7FF8
1FE0
ENDCHAR
STARTCHAR Dcroat
ENCODING 272
SWIDTH 578 0
DWIDTH 14 0
BBX 14 16 0 0
BITMAP
1FE0
7018
F7D8
F7DC
F7DC
C1DC
F7DC
F7DC
F7DC
F01C
F03C
FFFC
FFFC
FFF8
7FF8
1FE0
ENDCHAR
STARTCHAR dcroat
ENCODING 273
SWIDTH 578 0
DWIDTH 14 0
BBX 14 16 0 0
BITMAP
1FE0
7018
F7D8
F7DC
F7DC
C1DC
F7DC
F7DC
F7DC
F01C
F03C
FFFC
FFFC
FFF8
7FF8
1FE0
ENDCHAR
STARTCHAR Emacron
ENCODING 274
SWIDTH 578 0
DWIDTH 14 0
BBX 14 22 0 0
BITMAP
07C0
1FF0
1FF0
3838
3838
1FF0
1FE0
7838
FBF8
FBFC
FBFC
F83C
FBFC
FBFC
FBFC
F81C
F81C
FFFC
FFFC
FFF8
7FF8
1FE0
ENDCHAR
STARTCHAR emacron
ENCODING 275
SWIDTH 578 0
DWIDTH 14 0
BBX 14 22 0 0
BITMAP
0FC0
1FE0
3FF0
3870
3870
3FF0
1FE0
7038
F7B8
F7BC
F7BC
F03C
F7FC
F7FC
F7FC
F03C
FFFC
FFFC
FFFC
FFF8
7FF8
1FE0
ENDCHAR
STARTCHAR Ebreve
ENCODING 276
SWIDTH 578 0
DWIDTH 14 0
BBX 14 22 0 0
BITMAP
07C0
1FF0
1FF0
3FF8
3C38
1FF0
1FE0
7838
FBF8
FBFC
FBFC
F83C
FBFC
FBFC
FBFC
F81C
F81C
FFFC
FFFC
FFF8
7FF8
1FE0
ENDCHAR
STARTCHAR ebreve
ENCODING 277
SWIDTH 578 0
DWIDTH 14 0
BBX 14 22 0 0
BITMAP
0FC0
1FE0
3FF0
3FF0
3870
3FF0
1FE0
7038
F7B8
F7BC
F7BC
F03C
F7FC
F7FC
F7FC
F03C
FFFC
FFFC
FFFC
FFF8
7FF8
1FE0
ENDCHAR
STARTCHAR Edotaccent
ENCODING 278
SWIDTH 578 0
DWIDTH 14 0
BBX 14 22 0 0
BITMAP
07C0
1FF0
1FF0
3EF8
3EF8
1FF0
1FF0
7838
FBF8
FBFC
FBFC
F83C
FBFC
FBFC
FBFC
F81C
F81C
FFFC
FFFC
FFF8
7FF8
1FE0
ENDCHAR
STARTCHAR edotaccent
ENCODING 279
SWIDTH 578 0
DWIDTH 14 0
BBX 14 22 0 0
BITMAP
0FC0
1FE0
3FF0
3CF0
3CF0
3FF0
1FE0
7038
F7B8
F7BC
F7BC
F03C
F7FC
F7FC
F7FC
F03C
FFFC
FFFC
FFFC
FFF8
7FF8
1FE0
ENDCHAR
STARTCHAR Eogonek
ENCODING 280
SWIDTH 578 0
DWIDTH 14 0
BBX 14 16 0 0
BITMAP
1FE0
7838
FBF8
FBFC
FBFC
F83C
FBFC
FBFC
FBFC
F81C
F85C
FFBC
FF7C
FF18
7FF8
1FE0
ENDCHAR
STARTCHAR eogonek
ENCODING 281
SWIDTH 578 0
DWIDTH 14 0
BBX 14 16 0 0
BITMAP
1FE0
7038
F7B8
F7BC
F7BC
F03C
F7FC
F7FC
F7FC
F03C
FF7C
FCFC
FDFC
FE78
7FF8
1FE0
ENDCHAR
STARTCHAR Ecaron
ENCODING 282
SWIDTH 578 0
DWIDTH 14 0
BBX 14 23 0 0
BITMAP
0EE0
1FF0
1DB0
1D70
0D70
0EE0
0FE0
1FE0
7838
FBF8
FBFC
FBFC
F83C
FBFC
FBFC
FBFC
F81C
F81C
FFFC
FFFC
FFF8
7FF8
1FE0
ENDCHAR
STARTCHAR ecaron
ENCODING 283
SWIDTH 578 0
DWIDTH 14 0
BBX 14 23 0 0
BITMAP
0FC0
1FE0
1B60
1BE0
1EE0
1EE0
0FC0
1FE0
7038
F7B8
F7BC
F7BC
F03C
F7FC
F7FC
F7FC
F03C
FFFC
FFFC
FFFC
FFF8
7FF8
1FE0
ENDCHAR
STARTCHAR Gcircumflex
ENCODING 284
SWIDTH 578 0
DWIDTH 14 0
BBX 14 24 0 0
BITMAP
0300
07C0
0FC0
0DC0
1DE0
1F60
1B70
1FE0
1FE0
7818
F7F8
F7FC
F7FC
F7FC
F71C
F7DC
F7DC
F01C
F83C
FFFC
FFFC
FFF8
7FF8
1FE0
ENDCHAR
STARTCHAR gcircumflex
ENCODING 285
SWIDTH 578 0
DWIDTH 14 0
BBX 14 24 0 0
BITMAP
0300
07C0
0FC0
0DC0
1DE0
1F60
1B70
1FE0
1FE0
7818
F7F8
F7FC
F7FC
F7FC
F71C
F7DC
F7DC
F01C
F83C
FFFC
FFFC
FFF8
7FF8
1FE0
ENDCHAR
STARTCHAR Gbreve
ENCODING 286
SWIDTH 578 0
DWIDTH 14 0
BBX 14 22 0 0
BITMAP
0FC0
1FE0
3FF0
3FF0
3870
3FF0
1FE0
7818
F7F8
F7FC
F7FC
F7FC
F71C
F7DC
F7DC
F01C
F83C
FFFC
FFFC
FFF8
7FF8
1FE0
ENDCHAR
STARTCHAR gbreve
ENCODING 287
SWIDTH 578 0
DWIDTH 14 0
BBX 14 22 0 0
BITMAP
0FC0
1FE0
3FF0
3FF0
3870
3FF0
1FE0
7818
F7F8
F7FC
F7FC
F7FC
F71C
F7DC
F7DC
F01C
F83C
FFFC
FFFC
FFF8
7FF8
1FE0
ENDCHAR
STARTCHAR Gdotaccent
ENCODING 288
SWIDTH 578 0
DWIDTH 14 0
BBX 14 22 0 0
BITMAP
0FC0
1FE0
3FF0
3CF0
3CF0
3FF0
1FE0
7818
F7F8
F7FC
F7FC
F7FC
F71C
F7DC
F7DC
F01C
F83C
FFFC
FFFC
FFF8
7FF8
1FE0
ENDCHAR
STARTCHAR gdotaccent
ENCODING 289
SWIDTH 578 0
DWIDTH 14 0
BBX 14 22 0 0
BITMAP
0FC0
1FE0
3FF0
3CF0
3CF0
3FF0
1FE0
7818
F7F8
F7FC
F7FC
F7FC
F71C
F7DC
F7DC
F01C
F83C
FFFC
FFFC
FFF8
7FF8
1FE0
ENDCHAR
STARTCHAR Gcommaaccent
ENCODING 290
SWIDTH 578 0
DWIDTH 14 0
BBX 14 16 0 0
BITMAP
1FE0
7818
F7F8
F7FC
F7FC
F7FC
F71C
F7DC
F7DC
F01C
F83C
FFFC
FE7C
FFF8
7FF8
1FE0
ENDCHAR
STARTCHAR gcommaaccent
ENCODING 291
SWIDTH 578 0
DWIDTH 14 0
BBX 14 16 0 0
BITMAP
1FE0
7818
F7F8
F7FC
F7FC
F7FC
F71C
F7DC
F7DC
F01C
F83C
FFFC
FE7C
FFF8
7FF8
1FE0
ENDCHAR
STARTCHAR Hcircumflex
ENCODING 292
SWIDTH 578 0
DWIDTH 14 0
BBX 14 24 0 0
BITMAP
0100
07C0
0FC0
0DE0
1DE0
1F60
1B70
1FE0
1FE0
77D8
F7D8
F7DC
F7DC
F01C
F7DC
F7DC
F7DC
F7DC
F7DC
FFFC
FFFC
FFF8
7FF8
1FE0
ENDCHAR
STARTCHAR hcircumflex
ENCODING 293
SWIDTH 578 0
DWIDTH 14 0
BBX 14 24 0 0
BITMAP
0100
07C0
0FC0
0EE0
0D60
1D60
1B70
1FF0
1FE0
77D8
F7D8
F7DC
F7DC
F01C
F7DC
F7DC
F7DC
F7DC
F7DC
FFFC
FFFC
FFF8
7FF8
1FE0
ENDCHAR
STARTCHAR Hbar
ENCODING 294
SWIDTH 578 0
DWIDTH 14 0
BBX 14 22 0 0
BITMAP
0FC0
1FE0
3FF0
3870
3870
3FF0
1FE0
77D8
F7D8
F7DC
F7DC
F01C
F7DC
F7DC
F7DC
F7DC
F7DC
FFFC
FFFC
FFF8
7FF8
1FE0
ENDCHAR
STARTCHAR hbar
ENCODING 295
SWIDTH 578 0
DWIDTH 14 0
BBX 14 16 0 0
BITMAP
1FE0
77D8
F7D8
E00C
F7DC
F01C
F7DC
F7DC
F7DC
F7DC
F7DC
FFFC
FFFC
FFF8
7FF8
1FE0
ENDCHAR
STARTCHAR Itilde
ENCODING 296
SWIDTH 578 0
DWIDTH 14 0
BBX 14 23 0 0
BITMAP
0380
0FE0
1FF0
1FF8
3FF8
18B8
1B70
1FF0
7018
FEF8
FEFC
FEFC
FEFC
FEFC
FEFC
FEFC
F01C
F01C
FFFC
FFFC
FFF8
7FF8
1FE0
ENDCHAR
STARTCHAR itilde
ENCODING 297
SWIDTH 578 0
DWIDTH 14 0
BBX 14 23 0 0
BITMAP
0380
0FE0
1FF0
1FF8
3FF8
38B8
1B70
1FF0
7018
FEF8
FEFC
FEFC
FEFC
FEFC
FEFC
FEFC
F01C
F01C
FFFC
FFFC
FFF8
7FF8
1FE0
ENDCHAR
STARTCHAR Imacron
ENCODING 298
SWIDTH 578 0
DWIDTH 14 0
BBX 14 22 0 0
BITMAP
07C0
1FF0
1FF0
3838
3838
1FF0
1FE0
7018
FEF8
FEFC
FEFC
FEFC
FEFC
FEFC
FEFC
F01C
F01C
FFFC
FFFC
FFF8
7FF8
1FE0
ENDCHAR
STARTCHAR imacron
ENCODING 299
SWIDTH 578 0
DWIDTH 14 0
BBX 14 22 0 0
BITMAP
07C0
1FF0
3FF0
3878
3878
1FF0
1FE0
7018
FEF8
FEFC
FEFC
FEFC
FEFC
FEFC
FEFC
F01C
F01C
FFFC
FFFC
FFF8
7FF8
1FE0
ENDCHAR
STARTCHAR Ibreve
ENCODING 300
SWIDTH 578 0
DWIDTH 14 0
BBX 14 22 0 0
BITMAP
07C0
1FF0
1FF8
3FF8
1C38
1FF0
1FE0
7018
FEF8
FEFC
FEFC
FEFC
FEFC
FEFC
FEFC
F01C
F01C
FFFC
FFFC
FFF8
7FF8
1FE0
ENDCHAR
STARTCHAR ibreve
ENCODING 301
SWIDTH 578 0
DWIDTH 14 0
BBX 14 22 0 0
BITMAP
07C0
1FF0
1FF0
3FF8
3C38
1FF0
1FE0
7018
FEF8
FEFC
FEFC
FEFC
FEFC
FEFC
FEFC
F01C
F01C
FFFC
FFFC
FFF8
7FF8
1FE0
ENDCHAR
STARTCHAR Iogonek
ENCODING 302
SWIDTH 578 0
DWIDTH 14 0
BBX 14 16 0 0
BITMAP
1FE0
7018
FEF8
FEFC
FEFC
FEFC
FEFC
FEFC
FEFC
F01C
F05C
FFBC
FF7C
FF98
7FF8
1FE0
ENDCHAR
STARTCHAR iogonek
ENCODING 303
SWIDTH 578 0
DWIDTH 14 0
BBX 14 16 0 0
BITMAP
1FE0
7018
FEF8
FEFC
FEFC
FEFC
FEFC
FEFC
FEFC
F01C
F05C
FFBC
FFBC
FF98
7FF8
1FE0
ENDCHAR
STARTCHAR Idotaccent
ENCODING 304
SWIDTH 578 0
DWIDTH 14 0
BBX 14 22 0 0
BITMAP
0FC0
1FE0
3FF0
3CF0
3CF0
3FF0
1FE0
7018
FEF8
FEFC
FEFC
FEFC
FEFC
FEFC
FEFC
F01C
F01C
FFFC
FFFC
FFF8
7FF8
1FE0
ENDCHAR
STARTCHAR dotlessi
ENCODING 305
SWIDTH 578 0
DWIDTH 14 0
BBX 14 16 0 0
BITMAP
1FE0
7018
FEF8
FEFC
FEFC
FEFC
FEFC
FEFC
FEFC
F01C
F01C
FFFC
FFFC
FFF8
7FF8
1FE0
ENDCHAR
STARTCHAR IJ
ENCODING 306
SWIDTH 578 0
DWIDTH 14 0
BBX 14 16 0 0
BITMAP
3FF0
41C8
F7C8
F7CC
F7CC
F7CC
F7CC
F7CC
F7CC
C10C
C11C
FFFC
FFFC
FFF8
7FF8
1FE0
ENDCHAR
STARTCHAR ij
ENCODING 307
SWIDTH 578 0
DWIDTH 14 0
BBX 14 16 0 0
BITMAP
3FF0
41C8
F7C8
F7CC
F7CC
F7CC
F7CC
F7CC
F7CC
C10C
C11C
FFFC
FFFC
FFF8
7FF8
1FE0
ENDCHAR
STARTCHAR Jcircumflex
ENCODING 308
SWIDTH 578 0
DWIDTH 14 0
BBX 14 24 0 0
BITMAP
0100
07C0
07C0
0FE0
0D60
1D60
1B70
1FF0
1FE0
7F78
FF78
FF7C
FF7C
FF7C
FF7C
FF7C
FF7C
F87C
F8FC
FFFC
FFFC
FFF8
7FF8
1FE0
ENDCHAR
STARTCHAR jcircumflex
ENCODING 309
SWIDTH 578 0
DWIDTH 14 0
BBX 14 24 0 0
BITMAP
0100
07C0
07C0
0FE0
0D60
1D60
1B70
1FF0
1FE0
7F78
FF78
FF7C
FF7C
FF7C
FF7C
FF7C
FF7C
F87C
F8FC
FFFC
FFFC
FFF8
7FF8
1FE0
ENDCHAR
STARTCHAR Kcommaaccent
ENCODING 310
SWIDTH 578 0
DWIDTH 14 0
BBX 14 16 0 0
BITMAP
1FF0
7BC8
FB98
FB3C
FA7C
F8FC
FAFC
FB7C
FB3C
FB9C
FBDC
FFFC
FE7C
FFF8
7FF8
1FE0
ENDCHAR
STARTCHAR kcommaaccent
ENCODING 311
SWIDTH 578 0
DWIDTH 14 0
BBX 14 16 0 0
BITMAP
1FF0
7BC8
FB98
FB3C
FA7C
F8FC
FAFC
FB7C
FB3C
FB9C
FBDC
FFFC
FE7C
FFF8
7FF8
1FE0
ENDCHAR
STARTCHAR kgreenlandic
ENCODING 312
SWIDTH 578 0
DWIDTH 14 0
BBX 14 16 0 0
BITMAP
1FF0
7BC8
FB98
FB3C
FA7C
F8FC
FAFC
FB7C
FB3C
FB9C
FBDC
FFFC
FFFC
FFF8
7FF8
1FE0
ENDCHAR
STARTCHAR Lacute
ENCODING 313
SWIDTH 578 0
DWIDTH 14 0
BBX 14 23 0 0
BITMAP
0780
0FC0
0EE0
0DC0
1DC0
1F80
1F80
1FE0
7BF8
FBF8
FBFC
FBFC
FBFC
FBFC
FBFC
FBFC
F83C
F83C
FFFC
FFFC
FFF8
7FF8
1FE0
ENDCHAR
STARTCHAR lacute
ENCODING 314
SWIDTH 578 0
DWIDTH 14 0
BBX 14 23 0 0
BITMAP
0780
0FC0
0EE0
0DC0
1DC0
1F80
1F80
1FE0
7BF8
FBF8
FBFC
FBFC
FBFC
FBFC
FBFC
FBFC
F83C
F83C
FFFC
FFFC
FFF8
7FF8
1FE0
ENDCHAR
STARTCHAR Lcommaaccent
ENCODING 315
SWIDTH 578 0
DWIDTH 14 0
BBX 14 16 0 0
BITMAP
1FE0
7BF8
FBF8
FBFC
FBFC
FBFC
FBFC
FBFC
FBFC
F83C
F83C
FFFC
FE7C
FFF8
7FF8
1FE0
ENDCHAR
STARTCHAR lcommaaccent
ENCODING 316
SWIDTH 578 0
DWIDTH 14 0
BBX 14 16 0 0
BITMAP
1FE0
7BF8
FBF8
FBFC
FBFC
FBFC
FBFC
FBFC
FBFC
F83C
F83C
FFFC
FE7C
FFF8
7FF8
1FE0
ENDCHAR
STARTCHAR Lcaron
ENCODING 317
SWIDTH 578 0
DWIDTH 14 0
BBX 14 16 0 0
BITMAP
1FE0
7B38
FBB8
FB7C
FBFC
FBFC
FBFC
FBFC
FBFC
F83C
F83C
FFFC
FFFC
FFF8
7FF8
1FE0
ENDCHAR
STARTCHAR lcaron
ENCODING 318
SWIDTH 578 0
DWIDTH 14 0
BBX 14 16 0 0
BITMAP
1FE0
7B38
FBB8
FB7C
FBFC
FBFC
FBFC
FBFC
FBFC
F83C
F83C
FFFC
FFFC
FFF8
7FF8
1FE0
ENDCHAR
STARTCHAR Ldot
ENCODING 319
SWIDTH 578 0
DWIDTH 14 0
BBX 14 16 0 0
BITMAP
1FE0
7BF8
FBF8
FBFC
FB7C
FBFC
FBFC
FBFC
FBFC
F83C
F83C
FFFC
FFFC
FFF8
7FF8
1FE0
ENDCHAR
STARTCHAR ldot
ENCODING 320
SWIDTH 578 0
DWIDTH 14 0
BBX 14 16 0 0
BITMAP
1FE0
7BF8
FBF8
FBFC
FB7C
FBFC
FBFC
FBFC
FBFC
F83C
F83C
FFFC
FFFC
FFF8
7FF8
1FE0
ENDCHAR
STARTCHAR Lslash
ENCODING 321
SWIDTH 578 0
DWIDTH 14 0
BBX 14 16 0 0
BITMAP
1FE0
7BF8
FBF8
FBFC
FAFC
F9FC
F7FC
FBFC
FBFC
F83C
F83C
FFFC
FFFC
FFF8
7FF8
1FE0
ENDCHAR
STARTCHAR lslash
ENCODING 322
SWIDTH 578 0
DWIDTH 14 0
BBX 14 16 0 0
BITMAP
1FE0
7BF8
FBF8
FBFC
FAFC
F9FC
F7FC
FBFC
FBFC
F83C
F83C
FFFC
FFFC
FFF8
7FF8
1FE0
ENDCHAR
STARTCHAR Nacute
ENCODING 323
SWIDTH 578 0
DWIDTH 14 0
BBX 14 23 0 0
BITMAP
03E0
07E0
0770
06E0
0EE0
0EC0
0FC0
1FE0
7038
F7D8
F7DC
F7DC
F7DC
F7DC
F7DC
F7DC
F7DC
F7DC
FFFC
FFFC
FFF8
7FF8
1FE0
ENDCHAR
STARTCHAR nacute
ENCODING 324
SWIDTH 578 0
DWIDTH 14 0
BBX 14 23 0 0
BITMAP
03E0
07E0
0770
06E0
0EE0
0EC0
0FC0
1FE0
7038
F7D8
F7DC
F7DC
F7DC
F7DC
F7DC
F7DC
F7DC
F7DC
FFFC
FFFC
FFF8
7FF8
1FE0
ENDCHAR
STARTCHAR Ncommaaccent
ENCODING 325
SWIDTH 578 0
DWIDTH 14 0
BBX 14 16 0 0
BITMAP
1FE0
7038
F7D8
F7DC
F7DC
F7DC
F7DC
F7DC
F7DC
F7DC
F7DC
FFFC
FE7C
FFF8
7FF8
1FE0
ENDCHAR
STARTCHAR ncommaaccent
ENCODING 326
SWIDTH 578 0
DWIDTH 14 0
BBX 14 16 0 0
BITMAP
1FE0
7038
F7D8
F7DC
F7DC
F7DC
F7DC
F7DC
F7DC
F7DC
F7DC
FFFC
FE7C
FFF8
7FF8
1FE0
ENDCHAR
STARTCHAR Ncaron
ENCODING 327
SWIDTH 578 0
DWIDTH 14 0
BBX 14 23 0 0
BITMAP
0FC0
1FE0
1B60
1BE0
1EE0
1EE0
0FC0
1FE0
7038
F7D8
F7DC
F7DC
F7DC
F7DC
F7DC
F7DC
F7DC
F7DC
FFFC
FFFC
FFF8
7FF8
1FE0
ENDCHAR
STARTCHAR ncaron
ENCODING 328
SWIDTH 578 0
DWIDTH 14 0
BBX 14 23 0 0
BITMAP
0FC0
1FE0
1B60
1BE0
1EE0
1EE0
0FC0
1FE0
7038
F7D8
F7DC
F7DC
F7DC
F7DC
F7DC
F7DC
F7DC
F7DC
FFFC
FFFC
FFF8
7FF8
1FE0
ENDCHAR
STARTCHAR napostrophe
ENCODING 329
SWIDTH 578 0
DWIDTH 14 0
BBX 14 16 0 0
BITMAP
1FE0
7038
97D8
97DC
D7DC
F7DC
F7DC
F7DC
F7DC
F7DC
F7DC
FFFC
FFFC
FFF8
7FF8
1FE0
ENDCHAR
STARTCHAR Eng
ENCODING 330
SWIDTH 578 0
DWIDTH 14 0
BBX 14 16 0 0
BITMAP
1FE0
7038
F7D8
F7DC
F7DC
F7DC
F7DC
F7DC
F7DC
F7DC
F7DC
FFDC
FFDC
FE18
7FF8
1FE0
ENDCHAR
STARTCHAR eng
ENCODING 331
SWIDTH 578 0
DWIDTH 14 0
BBX 14 16 0 0
BITMAP
1FE0
7038
F7D8
F7DC
F7DC
F7DC
F7DC
F7DC
F7DC
F7DC
F7DC
FFDC
FFDC
FE18
7FF8
1FE0
ENDCHAR
STARTCHAR Omacron
ENCODING 332
SWIDTH 578 0
DWIDTH 14 0
BBX 14 22 0 0
BITMAP
07C0
1FF0
1FF0
3878
3878
1FF0
1FE0
7018
F7D8
F7DC
F7DC
F7DC
F7DC
F7DC
F7DC
F01C
F83C
FFFC
FFFC
FFF8
7FF8
1FE0
ENDCHAR
STARTCHAR omacron
ENCODING 333
SWIDTH 578 0
DWIDTH 14 0
BBX 14 22 0 0
BITMAP
07C0
1FF0
1FF0
3878
3878
1FF0
1FE0
7018
F7D8
F7DC
F7DC
F7DC
F7DC
F7DC
F7DC
F01C
F83C
FFFC
FFFC
FFF8
7FF8
1FE0
ENDCHAR
STARTCHAR Obreve
ENCODING 334
SWIDTH 578 0
DWIDTH 14 0
BBX 14 22 0 0
BITMAP
07C0
1FF0
1FF0
3FF8
3838
1FF0
1FE0
7018
F7D8
F7DC
F7DC
F7DC
F7DC
F7DC
F7DC
F01C
F83C
FFFC
FFFC
FFF8
7FF8
1FE0
ENDCHAR
STARTCHAR obreve
ENCODING 335
SWIDTH 578 0
DWIDTH 14 0
BBX 14 22 0 0
BITMAP
07C0
1FF0
1FF0
3FF8
3838
1FF0
1FE0
7018
F7D8
F7DC
F7DC
F7DC
F7DC
F7DC
F7DC
F01C
F83C
FFFC
FFFC
FFF8
7FF8
1FE0
ENDCHAR
STARTCHAR Ohungarumlaut
ENCODING 336
SWIDTH 578 0
DWIDTH 14 0
BBX 14 23 0 0
BITMAP
03F8
03F8
076C
06DC
0EF8
0DB0
0FF0
1FE0
7018
F7D8
F7DC
F7DC
F7DC
F7DC
F7DC
F7DC
F01C
F83C
FFFC
FFFC
FFF8
7FF8
1FE0
ENDCHAR
STARTCHAR ohungarumlaut
ENCODING 337
SWIDTH 578 0
DWIDTH 14 0
BBX 14 23 0 0
BITMAP
03F8
03F8
076C
06DC
0EF8
0DB0
0FF0
1FE0
7018
F7D8
F7DC
F7DC
F7DC
F7DC
F7DC
F7DC
F01C
F83C
FFFC
FFFC
FFF8
7FF8
1FE0
ENDCHAR
STARTCHAR OE
ENCODING 338
SWIDTH 578 0
DWIDTH 14 0
BBX 14 16 0 0
BITMAP
1FE0
6118
EEF8
EEFC
EEFC
EE1C
EEFC
EEFC
EEFC
E00C
F10C
FFFC
FFFC
FFF8
7FF8
1FE0
ENDCHAR
STARTCHAR oe
ENCODING 339
SWIDTH 578 0
DWIDTH 14 0
BBX 14 16 0 0
BITMAP
1FE0
6118
EEF8
EEFC
EEFC
EE1C
EEFC
EEFC
EEFC
E00C
F10C
FFFC
FFFC
FFF8
7FF8
1FE0
ENDCHAR
STARTCHAR Racute
ENCODING 340
SWIDTH 578 0
DWIDTH 14 0
BBX 14 23 0 0
BITMAP
03E0
07E0
0770
06E0
0EE0
0EC0
0FC0
1FE0
7038
F7B8
F7BC
F7BC
F73C
F07C
F79C
F79C
F79C
F79C
FFFC
FFFC
FFF8
7FF8
1FE0
ENDCHAR
STARTCHAR racute
ENCODING 341
SWIDTH 578 0
DWIDTH 14 0
BBX 14 23 0 0
BITMAP
03E0
07E0
0770
06E0
0EE0
0EC0
0FC0
1FE0
7038
F7B8
F7BC
F7BC
F73C
F07C
F79C
F79C
F79C
F79C
FFFC
FFFC
FFF8
7FF8
1FE0
ENDCHAR
STARTCHAR Rcommaaccent
ENCODING 342
SWIDTH 578 0
DWIDTH 14 0
BBX 14 16 0 0
BITMAP
1FE0
7038
F7B8
F7BC
F7BC
F73C
F07C
F79C
F79C
F79C
F79C
FFFC
FE7C
FFF8
7FF8
1FE0
ENDCHAR
STARTCHAR rcommaaccent
ENCODING 343
SWIDTH 578 0
DWIDTH 14 0
BBX 14 16 0 0
BITMAP
1FE0
7038
F7B8
F7BC
F7BC
F73C
F07C
F79C
F79C
F79C
F79C
FFFC
FE7C
FFF8
7FF8
1FE0
ENDCHAR
STARTCHAR Rcaron
ENCODING 344
SWIDTH 578 0
DWIDTH 14 0
BBX 14 23 0 0
BITMAP
0FC0
1FE0
1B60
1BE0
1EE0
1EE0
0FC0
1FE0
7038
F7B8
F7BC
F7BC
F73C
F07C
F79C
F79C
F79C
F79C
FFFC
FFFC
FFF8
7FF8
1FE0
ENDCHAR
STARTCHAR rcaron
ENCODING 345
SWIDTH 578 0
DWIDTH 14 0
BBX 14 23 0 0
BITMAP
0FC0
1FE0
1B60
1BE0
1EE0
1EE0
0FC0
1FE0
7038
F7B8
F7BC
F7BC
F73C
F07C
F79C
F79C
F79C
F79C
FFFC
FFFC
FFF8
7FF8
1FE0
ENDCHAR
STARTCHAR Sacute
ENCODING 346
SWIDTH 578 0
DWIDTH 14 0
BBX 14 23 0 0
BITMAP
03E0
03F0
0770
0770
06E0
06E0
07C0
1FE0
7818
F7F8
F7FC
F7FC
F03C
FFDC
FFDC
FFDC
F81C
F03C
FFFC
FFFC
FFF8
7FF8
1FE0
ENDCHAR
STARTCHAR sacute
ENCODING 347
SWIDTH 578 0
DWIDTH 14 0
BBX 14 23 0 0
BITMAP
03E0
03F0
0770
0770
06E0
06E0
07C0
1FE0
7818
F7F8
F7FC
F7FC
F03C
FFDC
FFDC
FFDC
F81C
F03C
FFFC
FFFC
FFF8
7FF8
1FE0
ENDCHAR
STARTCHAR Scircumflex
ENCODING 348
SWIDTH 578 0
DWIDTH 14 0
BBX 14 24 0 0
BITMAP
0180
07C0
07C0
0EE0
0D60
0D70
1DB0
1FF0
1FE0
7818
F7F8
F7FC
F7FC
F03C
FFDC
FFDC
FFDC
F81C
F03C
FFFC
FFFC
FFF8
7FF8
1FE0
ENDCHAR
STARTCHAR scircumflex
ENCODING 349
SWIDTH 578 0
DWIDTH 14 0
BBX 14 24 0 0
BITMAP
0180
07C0
07C0
0EE0
0D60
0D70
1DB0
1FF0
1FE0
7818
F7F8
F7FC
F7FC
F03C
FFDC
FFDC
FFDC
F81C
F03C
FFFC
FFFC
FFF8
7FF8
1FE0
ENDCHAR
STARTCHAR Scedilla
ENCODING 350
SWIDTH 578 0
DWIDTH 14 0
BBX 14 16 0 0
BITMAP
1FE0
7818
F7F8
F7FC
F7FC
F03C
FFDC
FFDC
FFDC
F81C
F23C
FCFC
FDFC
FCF8
7FF8
1FE0
ENDCHAR
STARTCHAR scedilla
ENCODING 351
SWIDTH 578 0
DWIDTH 14 0
BBX 14 16 0 0
BITMAP
1FE0
7818
F7F8
F7FC
F7FC
F03C
FFDC
FFDC
FFDC
F81C
F23C
FCFC
FDFC
FCF8
7FF8
1FE0
ENDCHAR
STARTCHAR Scaron
ENCODING 352
SWIDTH 578 0
DWIDTH 14 0
BBX 14 23 0 0
BITMAP
0EE0
0FF0
1DB0
0D70
0F70
0F60
0FE0
1FE0
7818
F7F8
F7FC
F7FC
F03C
FFDC
FFDC
FFDC
F81C
F03C
FFFC
FFFC
FFF8
7FF8
1FE0
ENDCHAR
STARTCHAR scaron
ENCODING 353
SWIDTH 578 0
DWIDTH 14 0
BBX 14 23 0 0
BITMAP
0EE0
0FF0
1DB0
0D70
0F70
0F60
0FE0
1FE0
7818
F7F8
F7FC
F7FC
F03C
FFDC
FFDC
FFDC
F81C
F03C
FFFC
FFFC
FFF8
7FF8
1FE0
ENDCHAR
STARTCHAR Tcommaaccent
ENCODING 354
SWIDTH 578 0
DWIDTH 14 0
BBX 14 16 0 0
BITMAP
1FE0
7018
FEF8
FEFC
FEFC
FEFC
FEFC
FEFC
FEFC
FEFC
FEFC
FFFC
FE7C
FFF8
7FF8
1FE0
ENDCHAR
STARTCHAR tcommaaccent
ENCODING 355
SWIDTH 578 0
DWIDTH 14 0
BBX 14 16 0 0
BITMAP
1FE0
7018
FEF8
FEFC
FEFC
FEFC
FEFC
FEFC
FEFC
FEFC
FEFC
FFFC
FE7C
FFF8
7FF8
1FE0
ENDCHAR
STARTCHAR Tcaron
ENCODING 356
SWIDTH 578 0
DWIDTH 14 0
BBX 14 23 0 0
BITMAP
0EE0
1FF0
1B70
1D70
1D60
0EE0
0FE0
1FE0
7018
FEF8
FEFC
FEFC
FEFC
FEFC
FEFC
FEFC
FEFC
FEFC
FFFC
FFFC
FFF8
7FF8
1FE0
ENDCHAR
STARTCHAR tcaron
ENCODING 357
SWIDTH 578 0
DWIDTH 14 0
BBX 14 16 0 0
BITMAP
1FE0
7018
FEF8
FE9C
FEDC
FEFC
FEFC
FEFC
FEFC
FEFC
FEFC
FFFC
FFFC
FFF8
7FF8
1FE0
ENDCHAR
STARTCHAR Tbar
ENCODING 358
SWIDTH 578 0
DWIDTH 14 0
BBX 14 16 0 0
BITMAP
1FE0
7018
FEF8
FEFC
FEFC
F83C
F83C
FEFC
FEFC
FEFC
FEFC
FFFC
FFFC
FFF8
7FF8
1FE0
ENDCHAR
STARTCHAR tbar
ENCODING 359
SWIDTH 578 0
DWIDTH 14 0
BBX 14 16 0 0
BITMAP
1FE0
7018
FEF8
FEFC
FEFC
F83C
F83C
FEFC
FEFC
FEFC
FEFC
FFFC
FFFC
FFF8
7FF8
1FE0
ENDCHAR
STARTCHAR Utilde
ENCODING 360
SWIDTH 578 0
DWIDTH 14 0
BBX 14 23 0 0
BITMAP
0380
0FE0
1FF0
1FF8
3FF8
38B8
1B70
1FF0
77D8
F7D8
F7DC
F7DC
F7DC
F7DC
F7DC
F7DC
F01C
F83C
FFFC
FFFC
FFF8
7FF8
1FE0
ENDCHAR
STARTCHAR utilde
ENCODING 361
SWIDTH 578 0
DWIDTH 14 0
BBX 14 23 0 0
BITMAP
0380
0FE0
1FF0
1FF8
3FF8
38B8
1B70
1FF0
77D8
F7D8
F7DC
F7DC
F7DC
F7DC
F7DC
F7DC
F01C
F83C
FFFC
FFFC
FFF8
7FF8
1FE0
ENDCHAR
STARTCHAR Umacron
ENCODING 362
SWIDTH 578 0
DWIDTH 14 0
BBX 14 22 0 0
BITMAP
07C0
1FF0
1FF0
3838
3838
1FF0
1FE0
77D8
F7D8
F7DC
F7DC
F7DC
F7DC
F7DC
F7DC
F01C
F83C
FFFC
FFFC
FFF8
7FF8
1FE0
ENDCHAR
STARTCHAR umacron
ENCODING 363
SWIDTH 578 0
DWIDTH 14 0
BBX 14 22 0 0
BITMAP
07C0
1FF0
1FF0
3838
3838
1FF0
1FE0
77D8
F7D8
F7DC
F7DC
F7DC
F7DC
F7DC
F7DC
F01C
F83C
FFFC
FFFC
FFF8
7FF8
1FE0
ENDCHAR
STARTCHAR Ubreve
ENCODING 364
SWIDTH 578 0
DWIDTH 14 0
BBX 14 22 0 0
BITMAP
07C0
1FF0
1FF0
3FF8
3C38
1FF0
1FE0
77D8
F7D8
F7DC
F7DC
F7DC
F7DC
F7DC
F7DC
F01C
F83C
FFFC
FFFC
FFF8
7FF8
1FE0
ENDCHAR
STARTCHAR ubreve
ENCODING 365
SWIDTH 578 0
DWIDTH 14 0
BBX 14 22 0 0
BITMAP
07C0
1FF0
1FF0
3FF8
3C38
1FF0
1FE0
77D8
F7D8
F7DC
F7DC
F7DC
F7DC
F7DC
F7DC
F01C
F83C
FFFC
FFFC
FFF8
7FF8
1FE0
ENDCHAR
STARTCHAR Uring
ENCODING 366
SWIDTH 578 0
DWIDTH 14 0
BBX 14 22 0 0
BITMAP
07C0
0FE0
1C70
1BF0
1870
1FF0
1FE0
77D8
F7D8
F7DC
F7DC
F7DC
F7DC
F7DC
F7DC
F01C
F83C
FFFC
FFFC
FFF8
7FF8
1FE0
ENDCHAR
STARTCHAR uring
ENCODING 367
SWIDTH 578 0
DWIDTH 14 0
BBX 14 22 0 0
BITMAP
07C0
0FE0
1C70
1BF0
1C70
1FF0
1FE0
77D8
F7D8
F7DC
F7DC
F7DC
F7DC
F7DC
F7DC
F01C
F83C
FFFC
FFFC
FFF8
7FF8
1FE0
ENDCHAR
STARTCHAR Uhungarumlaut
ENCODING 368
SWIDTH 581 0
DWIDTH 14 0
BBX 14 23 0 0
BITMAP
01F8
03F8
076C
06DC
0EF8
0DB0
0FF0
1FE0
77D8
F7D8
F7DC
F7DC
F7DC
F7DC
F7DC
F7DC
F01C
F83C
FFFC
FFFC
FFF8
7FF8
1FE0
ENDCHAR
STARTCHAR uhungarumlaut
ENCODING 369
SWIDTH 582 0
DWIDTH 14 0
BBX 14 23 0 0
BITMAP
01F8
03F8
076C
06DC
0EF8
0DB0
0FF0
1FE0
77D8
F7D8
F7DC
F7DC
F7DC
F7DC
F7DC
F7DC
F01C
F83C
FFFC
FFFC
FFF8
7FF8
1FE0
ENDCHAR
STARTCHAR Uogonek
ENCODING 370
SWIDTH 578 0
DWIDTH 14 0
BBX 14 16 0 0
BITMAP
1FE0
77D8
F7D8
F7DC
F7DC
F7DC
F7DC
F7DC
F7DC
F01C
F93C
FEFC
FDFC
FC78
7FF8
1FE0
ENDCHAR
STARTCHAR uogonek
ENCODING 371
SWIDTH 578 0
DWIDTH 14 0
BBX 14 16 0 0
BITMAP
1FE0
77D8
F7D8
F7DC
F7DC
F7DC
F7DC
F7DC
F7DC
F01C
F93C
FEFC
FDFC
FC78
7FF8
1FE0
ENDCHAR
STARTCHAR Wcircumflex
ENCODING 372
SWIDTH 578 0
DWIDTH 14 0
BBX 14 24 0 0
BITMAP
0100
07C0
0FC0
0DE0
1DE0
1F60
1B70
1FE0
1FF0
6EE8
ECC8
ECCC
ECCC
ED5C
ED5C
E55C
E55C
E11C
F3BC
FFFC
FFFC
FFF8
7FF8
1FE0
ENDCHAR
STARTCHAR wcircumflex
ENCODING 373
SWIDTH 578 0
DWIDTH 14 0
BBX 14 24 0 0
BITMAP
0100
07C0
0FC0
0DE0
1DE0
1F60
1B70
1FE0
1FF0
6EE8
ECC8
ECCC
ECCC
ED5C
ED5C
E55C
E55C
E11C
F3BC
FFFC
FFFC
FFF8
7FF8
1FE0
ENDCHAR
STARTCHAR Ycircumflex
ENCODING 374
SWIDTH 578 0
DWIDTH 14 0
BBX 14 24 0 0
BITMAP
0100
07C0
07C0
0FE0
0D60
1D70
1B70
1FF0
1FE0
7398
FBB8
FBBC
F93C
FD7C
FC7C
FEFC
FEFC
FEFC
FEFC
FFFC
FFFC
FFF8
7FF8
1FE0
ENDCHAR
STARTCHAR ycircumflex
ENCODING 375
SWIDTH 578 0
DWIDTH 14 0
BBX 14 24 0 0
BITMAP
0100
07C0
07C0
0FE0
0D60
1D70
1B70
1FF0
1FE0
7398
FBB8
FBBC
F93C
FD7C
FC7C
FEFC
FEFC
FEFC
FEFC
FFFC
FFFC
FFF8
7FF8
1FE0
ENDCHAR
STARTCHAR Ydieresis
ENCODING 376
SWIDTH 578 0
DWIDTH 14 0
BBX 14 22 0 0
BITMAP
07C0
0FE0
1FF0
1930
1930
1FF0
1FE0
7398
FBB8
FBBC
F93C
FD7C
FC7C
FEFC
FEFC
FEFC
FEFC
FFFC
FFFC
FFF8
7FF8
1FE0
ENDCHAR
STARTCHAR Zacute
ENCODING 377
SWIDTH 578 0
DWIDTH 14 0
BBX 14 23 0 0
BITMAP
03C0
07E0
0EE0
0EE0
0DC0
0DC0
0F80
1FE0
7838
FFB8
FF7C
FE7C
FEFC
FCFC
FDFC
FBFC
F83C
F83C
FFFC
FFFC
FFF8
7FF8
1FE0
ENDCHAR
STARTCHAR zacute
ENCODING 378
SWIDTH 578 0
DWIDTH 14 0
BBX 14 23 0 0
BITMAP
03C0
07E0
0EE0
0EE0
0DC0
0DC0
0F80
1FE0
7838
FFB8
FF7C
FE7C
FEFC
FCFC
FDFC
FBFC
F83C
F83C
FFFC
FFFC
FFF8
7FF8
1FE0
ENDCHAR
STARTCHAR Zdotaccent
ENCODING 379
SWIDTH 578 0
DWIDTH 14 0
BBX 14 22 0 0
BITMAP
0FC0
1FE0
3FF0
3CF0
3CF0
3FF0
1FE0
7838
FFB8
FF7C
FE7C
FEFC
FCFC
FDFC
FBFC
F83C
F83C
FFFC
FFFC
FFF8
7FF8
1FE0
ENDCHAR
STARTCHAR zdotaccent
ENCODING 380
SWIDTH 578 0
DWIDTH 14 0
BBX 14 22 0 0
BITMAP
0FC0
1FE0
3FF0
3CF0
3CF0
3FF0
1FE0
7838
FFB8
FF7C
FE7C
FEFC
FCFC
FDFC
FBFC
F83C
F83C
FFFC
FFFC
FFF8
7FF8
1FE0
ENDCHAR
STARTCHAR Zcaron
ENCODING 381
SWIDTH 578 0
DWIDTH 14 0
BBX 14 23 0 0
BITMAP
0EE0
1FE0
1B60
1F60
1DE0
1DE0
0FC0
1FE0
7838
FFB8
FF7C
FE7C
FEFC
FCFC
FDFC
FBFC
F83C
F83C
FFFC
FFFC
FFF8
7FF8
1FE0
ENDCHAR
STARTCHAR zcaron
ENCODING 382
SWIDTH 578 0
DWIDTH 14 0
BBX 14 23 0 0
BITMAP
0EE0
1FE0
1B60
1F60
1DE0
1DE0
0FC0
1FE0
7838
FFB8
FF7C
FE7C
FEFC
FCFC
FDFC
FBFC
F83C
F83C
FFFC
FFFC
FFF8
7FF8
1FE0
ENDCHAR
STARTCHAR longs
ENCODING 383
SWIDTH 578 0
DWIDTH 14 0
BBX 14 16 0 0
BITMAP
1FE0
7FF8
F938
F79C
F7DC
FEDC
F6DC
F6BC
FAFC
FEFC
FFFC
FFFC
FFFC
FFF8
7FF8
1FE0
ENDCHAR
STARTCHAR florin
ENCODING 402
SWIDTH 578 0
DWIDTH 14 0
BBX 14 16 0 0
BITMAP
1FE0
7E78
FDF8
FDFC
FDFC
F87C
FDFC
FDFC
FDFC
FDFC
FDFC
FDFC
F3FC
FFF8
7FF8
1FE0
ENDCHAR
STARTCHAR uni01CD
ENCODING 461
SWIDTH 578 0
DWIDTH 14 0
BBX 14 23 0 0
BITMAP
0EE0
1FF0
1B70
1D70
1D60
0EE0
0FE0
1FE0
7838
F3B8
F7BC
F79C
F79C
F01C
F7DC
F7DC
F7DC
E7DC
FFFC
FFFC
FFF8
7FF8
1FE0
ENDCHAR
STARTCHAR uni01CE
ENCODING 462
SWIDTH 578 0
DWIDTH 14 0
BBX 14 23 0 0
BITMAP
0EE0
1FF0
1DB0
1D70
0D70
0EE0
0FE0
1FE0
7038
FFB8
FFBC
FFBC
FFBC
F03C
E7BC
E7BC
F03C
F03C
FFFC
FFFC
FFF8
7FF8
1FE0
ENDCHAR
STARTCHAR uni01CF
ENCODING 463
SWIDTH 578 0
DWIDTH 14 0
BBX 14 23 0 0
BITMAP
0EE0
0FF0
1DB0
0D70
0F70
0EE0
0FE0
1FE0
7018
FEF8
FEFC
FEFC
FEFC
FEFC
FEFC
FEFC
F01C
F01C
FFFC
FFFC
FFF8
7FF8
1FE0
ENDCHAR
STARTCHAR uni01D0
ENCODING 464
SWIDTH 578 0
DWIDTH 14 0
BBX 14 23 0 0
BITMAP
0EE0
1FF0
1DB0
1D70
0D70
0EE0
0FE0
1FE0
7018
FEF8
FEFC
FEFC
FEFC
FEFC
FEFC
FEFC
F01C
F01C
FFFC
FFFC
FFF8
7FF8
1FE0
ENDCHAR
STARTCHAR uni01D1
ENCODING 465
SWIDTH 578 0
DWIDTH 14 0
BBX 14 23 0 0
BITMAP
0EE0
1FF0
1FF0
1D70
0D60
0FE0
0FE0
1FE0
7018
F7D8
F7DC
F7DC
F7DC
F7DC
F7DC
F7DC
F01C
F83C
FFFC
FFFC
FFF8
7FF8
1FE0
ENDCHAR
STARTCHAR uni01D3
ENCODING 467
SWIDTH 578 0
DWIDTH 14 0
BBX 14 23 0 0
BITMAP
0EE0
1FF0
1DB0
1D70
0D70
0EE0
0FE0
1FE0
77D8
F7D8
F7DC
F7DC
F7DC
F7DC
F7DC
F7DC
F01C
F83C
FFFC
FFFC
FFF8
7FF8
1FE0
ENDCHAR
STARTCHAR uni01D4
ENCODING 468
SWIDTH 578 0
DWIDTH 14 0
BBX 14 23 0 0
BITMAP
0EE0
1FF0
1DB0
1D70
0D70
0EE0
0FE0
1FE0
77D8
F7D8
F7DC
F7DC
F7DC
F7DC
F7DC
F7DC
F01C
F83C
FFFC
FFFC
FFF8
7FF8
1FE0
ENDCHAR
STARTCHAR uni0200
ENCODING 512
SWIDTH 578 0
DWIDTH 14 0
BBX 14 23 0 0
BITMAP
3F80
3F80
6DC0
76C0
3EE0
1B60
1FE0
1FE0
7838
F3B8
F7BC
F79C
F79C
F01C
F7DC
F7DC
F7DC
E7DC
FFFC
FFFC
FFF8
7FF8
1FE0
ENDCHAR
STARTCHAR uni0201
ENCODING 513
SWIDTH 578 0
DWIDTH 14 0
BBX 14 23 0 0
BITMAP
3F80
3F80
6DC0
76C0
3EE0
1B60
1FE0
1FE0
7038
FFB8
FFBC
FFBC
FFBC
F03C
E7BC
E7BC
F03C
F03C
FFFC
FFFC
FFF8
7FF8
1FE0
ENDCHAR
STARTCHAR uni0202
ENCODING 514
SWIDTH 578 0
DWIDTH 14 0
BBX 14 22 0 0
BITMAP
0FE0
1FF0
3FF0
3C78
3B70
1FF0
1FE0
7838
F3B8
F7BC
F79C
F79C
F01C
F7DC
F7DC
F7DC
E7DC
FFFC
FFFC
FFF8
7FF8
1FE0
ENDCHAR
STARTCHAR uni0203
ENCODING 515
SWIDTH 578 0
DWIDTH 14 0
BBX 14 22 0 0
BITMAP
0FE0
1FF0
3FF0
3C78
3B70
1FF0
1FE0
7038
FFB8
FFBC
FFBC
FFBC
F03C
E7BC
E7BC
F03C
F03C
FFFC
FFFC
FFF8
7FF8
1FE0
ENDCHAR
STARTCHAR uni0204
ENCODING 516
SWIDTH 578 0
DWIDTH 14 0
BBX 14 23 0 0
BITMAP
3F80
3F80
6DC0
76C0
3EE0
1B60
1FE0
1FE0
7838
FBF8
FBFC
FBFC
F83C
FBFC
FBFC
FBFC
F81C
F81C
FFFC
FFFC
FFF8
7FF8
1FE0
ENDCHAR
STARTCHAR uni0205
ENCODING 517
SWIDTH 578 0
DWIDTH 14 0
BBX 14 23 0 0
BITMAP
3F80
3F80
6DC0
76C0
3EE0
1B60
1FE0
1FE0
7038
F7B8
F7BC
F7BC
F03C
F7FC
F7FC
F7FC
F03C
FFFC
FFFC
FFFC
FFF8
7FF8
1FE0
ENDCHAR
STARTCHAR uni0206
ENCODING 518
SWIDTH 578 0
DWIDTH 14 0
BBX 14 22 0 0
BITMAP
0FE0
1FF0
3FF0
3C78
3B70
1FF0
1FE0
7838
FBF8
FBFC
FBFC
F83C
FBFC
FBFC
FBFC
F81C
F81C
FFFC
FFFC
FFF8
7FF8
1FE0
ENDCHAR
STARTCHAR uni0207
ENCODING 519
SWIDTH 578 0
DWIDTH 14 0
BBX 14 22 0 0
BITMAP
0FE0
1FF0
3FF0
3C78
3B70
1FF0
1FE0
7038
F7B8
F7BC
F7BC
F03C
F7FC
F7FC
F7FC
F03C
FFFC
FFFC
FFFC
FFF8
7FF8
1FE0
ENDCHAR
STARTCHAR uni0208
ENCODING 520
SWIDTH 578 0
DWIDTH 14 0
BBX 14 23 0 0
BITMAP
3F80
3F80
6DC0
76C0
3EE0
1B60
1FE0
1FE0
7018
FEF8
FEFC
FEFC
FEFC
FEFC
FEFC
FEFC
F01C
F01C
FFFC
FFFC
FFF8
7FF8
1FE0
ENDCHAR
STARTCHAR uni0209
ENCODING 521
SWIDTH 578 0
DWIDTH 14 0
BBX 14 23 0 0
BITMAP
3F80
3F80
6DC0
76C0
3EE0
1B60
1FE0
1FE0
7018
FEF8
FEFC
FEFC
FEFC
FEFC
FEFC
FEFC
F01C
F01C
FFFC
FFFC
FFF8
7FF8
1FE0
ENDCHAR
STARTCHAR uni020A
ENCODING 522
SWIDTH 578 0
DWIDTH 14 0
BBX 14 22 0 0
BITMAP
0FE0
1FF0
3FF0
3C78
3B70
1FF0
1FE0
7018
FEF8
FEFC
FEFC
FEFC
FEFC
FEFC
FEFC
F01C
F01C
FFFC
FFFC
FFF8
7FF8
1FE0
ENDCHAR
STARTCHAR uni020B
ENCODING 523
SWIDTH 578 0
DWIDTH 14 0
BBX 14 22 0 0
BITMAP
0FE0
1FF0
3FF0
3C78
3B70
1FF0
1FE0
7018
FEF8
FEFC
FEFC
FEFC
FEFC
FEFC
FEFC
F01C
F01C
FFFC
FFFC
FFF8
7FF8
1FE0
ENDCHAR
STARTCHAR uni020C
ENCODING 524
SWIDTH 578 0
DWIDTH 14 0
BBX 14 23 0 0
BITMAP
3F80
3F80
6DC0
76C0
3EE0
1B60
1FE0
1FE0
7018
F7D8
F7DC
F7DC
F7DC
F7DC
F7DC
F7DC
F01C
F83C
FFFC
FFFC
FFF8
7FF8
1FE0
ENDCHAR
STARTCHAR uni020D
ENCODING 525
SWIDTH 578 0
DWIDTH 14 0
BBX 14 23 0 0
BITMAP
3F80
3F80
6DC0
76C0
3EE0
1B60
1FE0
1FE0
7018
F7D8
F7DC
F7DC
F7DC
F7DC
F7DC
F7DC
F01C
F83C
FFFC
FFFC
FFF8
7FF8
1FE0
ENDCHAR
STARTCHAR uni020E
ENCODING 526
SWIDTH 578 0
DWIDTH 14 0
BBX 14 22 0 0
BITMAP
0FE0
1FF0
3FF0
3C78
3B70
1FF0
1FE0
7018
F7D8
F7DC
F7DC
F7DC
F7DC
F7DC
F7DC
F01C
F83C
FFFC
FFFC
FFF8
7FF8
1FE0
ENDCHAR
STARTCHAR uni020F
ENCODING 527
SWIDTH 578 0
DWIDTH 14 0
BBX 14 22 0 0
BITMAP
0FE0
1FF0
3FF0
3C78
3B70
1FF0
1FE0
7018
F7D8
F7DC
F7DC
F7DC
F7DC
F7DC
F7DC
F01C
F83C
FFFC
FFFC
FFF8
7FF8
1FE0
ENDCHAR
STARTCHAR uni0210
ENCODING 528
SWIDTH 578 0
DWIDTH 14 0
BBX 14 23 0 0
BITMAP
3F80
3F80
6DC0
76C0
3EE0
1B60
1FE0
1FE0
7038
F7B8
F7BC
F7BC
F73C
F07C
F79C
F79C
F79C
F79C
FFFC
FFFC
FFF8
7FF8
1FE0
ENDCHAR
STARTCHAR uni0211
ENCODING 529
SWIDTH 578 0
DWIDTH 14 0
BBX 14 23 0 0
BITMAP
3F80
3F80
6DC0
76C0
3EE0
1B60
1FE0
1FE0
7038
F7B8
F7BC
F7BC
F73C
F07C
F79C
F79C
F79C
F79C
FFFC
FFFC
FFF8
7FF8
1FE0
ENDCHAR
STARTCHAR uni0212
ENCODING 530
SWIDTH 578 0
DWIDTH 14 0
BBX 14 22 0 0
BITMAP
0FE0
1FF0
3FF0
3C78
3B70
1FF0
1FE0
7038
F7B8
F7BC
F7BC
F73C
F07C
F79C
F79C
F79C
F79C
FFFC
FFFC
FFF8
7FF8
1FE0
ENDCHAR
STARTCHAR uni0213
ENCODING 531
SWIDTH 578 0
DWIDTH 14 0
BBX 14 22 0 0
BITMAP
0FE0
1FF0
3FF0
3C78
3B70
1FF0
1FE0
7038
F7B8
F7BC
F7BC
F73C
F07C
F79C
F79C
F79C
F79C
FFFC
FFFC
FFF8
7FF8
1FE0
ENDCHAR
STARTCHAR uni0214
ENCODING 532
SWIDTH 578 0
DWIDTH 14 0
BBX 14 23 0 0
BITMAP
3F80
3F80
6DC0
76C0
3EE0
1B60
1FE0
1FE0
77D8
F7D8
F7DC
F7DC
F7DC
F7DC
F7DC
F7DC
F01C
F83C
FFFC
FFFC
FFF8
7FF8
1FE0
ENDCHAR
STARTCHAR uni0215
ENCODING 533
SWIDTH 578 0
DWIDTH 14 0
BBX 14 23 0 0
BITMAP
3F80
3F80
6DC0
76C0
3EE0
1B60
1FE0
1FE0
77D8
F7D8
F7DC
F7DC
F7DC
F7DC
F7DC
F7DC
F01C
F83C
FFFC
FFFC
FFF8
7FF8
1FE0
ENDCHAR
STARTCHAR uni0216
ENCODING 534
SWIDTH 578 0
DWIDTH 14 0
BBX 14 22 0 0
BITMAP
0FE0
1FF0
3FF0
3C78
3B70
1FF0
1FE0
77D8
F7D8
F7DC
F7DC
F7DC
F7DC
F7DC
F7DC
F01C
F83C
FFFC
FFFC
FFF8
7FF8
1FE0
ENDCHAR
STARTCHAR uni0217
ENCODING 535
SWIDTH 578 0
DWIDTH 14 0
BBX 14 22 0 0
BITMAP
0FE0
1FF0
3FF0
3C78
3B70
1FF0
1FE0
77D8
F7D8
F7DC
F7DC
F7DC
F7DC
F7DC
F7DC
F01C
F83C
FFFC
FFFC
FFF8
7FF8
1FE0
ENDCHAR
STARTCHAR uni0218
ENCODING 536
SWIDTH 578 0
DWIDTH 14 0
BBX 14 16 0 0
BITMAP
1FE0
7818
F7F8
F7FC
F7FC
F03C
FFDC
FFDC
FFDC
F81C
F03C
FFFC
FEFC
FEF8
7FF8
1FE0
ENDCHAR
STARTCHAR uni0219
ENCODING 537
SWIDTH 578 0
DWIDTH 14 0
BBX 14 16 0 0
BITMAP
1FE0
7818
F7F8
F7FC
F7FC
F03C
FFDC
FFDC
FFDC
F81C
F03C
FFFC
FEFC
FEF8
7FF8
1FE0
ENDCHAR
STARTCHAR uni021A
ENCODING 538
SWIDTH 578 0
DWIDTH 14 0
BBX 14 16 0 0
BITMAP
1FE0
7018
FEF8
FEFC
FEFC
FEFC
FEFC
FEFC
FEFC
FEFC
FEFC
FFFC
FE7C
FFF8
7FF8
1FE0
ENDCHAR
STARTCHAR uni021B
ENCODING 539
SWIDTH 578 0
DWIDTH 14 0
BBX 14 16 0 0
BITMAP
1FE0
7018
FEF8
FEFC
FEFC
FEFC
FEFC
FEFC
FEFC
FEFC
FEFC
FFFC
FE7C
FFF8
7FF8
1FE0
ENDCHAR
STARTCHAR circumflex
ENCODING 710
SWIDTH 355 0
DWIDTH 9 0
BBX 9 9 0 0
BITMAP
0800
3E00
7E00
6F00
6F00
EB00
DB80
FF00
7F00
ENDCHAR
STARTCHAR caron
ENCODING 711
SWIDTH 355 0
DWIDTH 9 0
BBX 9 8 0 0
BITMAP
7700
FF00
DB80
EB00
EF00
6F00
7F00
7E00
ENDCHAR
STARTCHAR breve
ENCODING 728
SWIDTH 428 0
DWIDTH 10 0
BBX 10 7 0 0
BITMAP
3F00
7F80
FFC0
FFC0
E1C0
FFC0
7F80
ENDCHAR
STARTCHAR dotaccent
ENCODING 729
SWIDTH 428 0
DWIDTH 10 0
BBX 10 7 0 0
BITMAP
3F00
7F80
FFC0
F3C0
F3C0
FFC0
7F80
ENDCHAR
STARTCHAR ring
ENCODING 730
SWIDTH 368 0
DWIDTH 9 0
BBX 9 7 0 0
BITMAP
3E00
7F00
E380
DF80
C380
FF80
7F00
ENDCHAR
STARTCHAR ogonek
ENCODING 731
SWIDTH 101 0
DWIDTH 2 0
BBX 2 4 0 -4
BITMAP
40
80
80
40
ENDCHAR
STARTCHAR tilde
ENCODING 732
SWIDTH 428 0
DWIDTH 10 0
BBX 10 8 0 0
BITMAP
1C00
7F80
7FC0
FFC0
FFC0
E4C0
DDC0
7F80
ENDCHAR
STARTCHAR hungarumlaut
ENCODING 733
SWIDTH 419 0
DWIDTH 10 0
BBX 10 8 0 0
BITMAP
1F80
3F80
76C0
7DC0
EF80
DB80
FF00
FE00
ENDCHAR
STARTCHAR uni030F
ENCODING 783
SWIDTH 419 0
DWIDTH 10 0
BBX 10 8 0 0
BITMAP
7E00
7F00
DB80
ED80
7DC0
36C0
3FC0
1FC0
ENDCHAR
STARTCHAR mu
ENCODING 956
SWIDTH 578 0
DWIDTH 14 0
BBX 14 16 0 0
BITMAP
1FE0
77D8
F7D8
F7DC
F7DC
F7DC
F7DC
F7DC
F7DC
F01C
F03C
FFFC
FFFC
FFF8
7FF8
1FE0
ENDCHAR
STARTCHAR pi
ENCODING 960
SWIDTH 578 0
DWIDTH 14 0
BBX 14 16 0 0
BITMAP
1FE0
7838
E7D8
E86C
DB7C
DBF4
F834
DBB4
DFBC
EFEC
E7DC
F83C
FFFC
FFF8
7FF8
1FE0
ENDCHAR
STARTCHAR uni1E60
ENCODING 7776
SWIDTH 578 0
DWIDTH 14 0
BBX 14 22 0 0
BITMAP
07C0
1FF0
1FF8
3EF8
1EF8
1FF8
1FF0
7818
F7F8
F7FC
F7FC
F03C
FFDC
FFDC
FFDC
F81C
F03C
FFFC
FFFC
FFF8
7FF8
1FE0
ENDCHAR
STARTCHAR uni1E8E
ENCODING 7822
SWIDTH 578 0
DWIDTH 14 0
BBX 14 22 0 0
BITMAP
07C0
1FF0
1FF0
3EF8
3EF8
1FF0
1FF0
7398
FBB8
FBBC
F93C
FD7C
FC7C
FEFC
FEFC
FEFC
FEFC
FFFC
FFFC
FFF8
7FF8
1FE0
ENDCHAR
STARTCHAR uni1E8F
ENCODING 7823
SWIDTH 578 0
DWIDTH 14 0
BBX 14 22 0 0
BITMAP
07C0
1FF0
1FF0
3EF8
3EF8
1FF0
1FF0
7398
FBB8
FBBC
F93C
FD7C
FC7C
FEFC
FEFC
FEFC
FEFC
FFFC
FFFC
FFF8
7FF8
1FE0
ENDCHAR
STARTCHAR uni1EBC
ENCODING 7868
SWIDTH 578 0
DWIDTH 14 0
BBX 14 23 0 0
BITMAP
0380
0FE0
1FF0
1FF8
3FF8
38B8
1B70
1FF0
7838
FBF8
FBFC
FBFC
F83C
FBFC
FBFC
FBFC
F81C
F81C
FFFC
FFFC
FFF8
7FF8
1FE0
ENDCHAR
STARTCHAR uni1EF8
ENCODING 7928
SWIDTH 578 0
DWIDTH 14 0
BBX 14 23 0 0
BITMAP
0380
0FE0
1FF0
3FF0
3FF8
38B8
1B70
1FF0
7398
FBB8
FBBC
F93C
FD7C
FC7C
FEFC
FEFC
FEFC
FEFC
FFFC
FFFC
FFF8
7FF8
1FE0
ENDCHAR
STARTCHAR uni1EF9
ENCODING 7929
SWIDTH 578 0
DWIDTH 14 0
BBX 14 23 0 0
BITMAP
0380
0FE0
1FF0
3FF0
3FF8
38B8
1B70
1FF0
7398
FBB8
FBBC
F93C
FD7C
FC7C
FEFC
FEFC
FEFC
FEFC
FFFC
FFFC
FFF8
7FF8
1FE0
ENDCHAR
STARTCHAR endash
ENCODING 8211
SWIDTH 428 0
DWIDTH 10 0
BBX 10 16 0 0
BITMAP
1F00
7F80
FFC0
FFC0
E1C0
FFC0
FFC0
FFC0
FFC0
FFC0
FFC0
FFC0
FFC0
FFC0
7F80
1F00
ENDCHAR
STARTCHAR emdash
ENCODING 8212
SWIDTH 428 0
DWIDTH 10 0
BBX 10 16 0 0
BITMAP
1F00
7F80
FFC0
FFC0
0000
FFC0
FFC0
FFC0
FFC0
FFC0
FFC0
FFC0
FFC0
FFC0
7F80
1F00
ENDCHAR
STARTCHAR quoteleft
ENCODING 8216
SWIDTH 428 0
DWIDTH 10 0
BBX 10 16 0 0
BITMAP
1F00
7B80
F7C0
F3C0
FFC0
FFC0
FFC0
FFC0
FFC0
FFC0
FFC0
FFC0
FFC0
FFC0
7F80
1F00
ENDCHAR
STARTCHAR quoteright
ENCODING 8217
SWIDTH 428 0
DWIDTH 10 0
BBX 10 16 0 0
BITMAP
1F00
7380
F3C0
FBC0
FFC0
FFC0
FFC0
FFC0
FFC0
FFC0
FFC0
FFC0
FFC0
FFC0
7F80
1F00
ENDCHAR
STARTCHAR quotesinglbase
ENCODING 8218
SWIDTH 428 0
DWIDTH 10 0
BBX 10 16 0 0
BITMAP
1F00
7F80
FFC0
FFC0
FFC0
FFC0
FFC0
FFC0
FFC0
F3C0
F3C0
FBC0
FFC0
FFC0
7F80
1F00
ENDCHAR
STARTCHAR quotedblleft
ENCODING 8220
SWIDTH 428 0
DWIDTH 10 0
BBX 10 16 0 0
BITMAP
1F00
7580
EFC0
E5C0
FFC0
FFC0
FFC0
FFC0
FFC0
FFC0
FFC0
FFC0
FFC0
FFC0
7F80
1F00
ENDCHAR
STARTCHAR quotedblright
ENCODING 8221
SWIDTH 428 0
DWIDTH 10 0
BBX 10 16 0 0
BITMAP
1F00
6580
E5C0
F5C0
FFC0
FFC0
FFC0
FFC0
FFC0
FFC0
FFC0
FFC0
FFC0
FFC0
7F80
1F00
ENDCHAR
STARTCHAR quotedblbase
ENCODING 8222
SWIDTH 428 0
DWIDTH 10 0
BBX 10 16 0 0
BITMAP
1F00
7F80
FFC0
FFC0
FFC0
FFC0
FFC0
FFC0
FFC0
E5C0
E5C0
F5C0
FFC0
FFC0
7F80
1F00
ENDCHAR
STARTCHAR dagger
ENCODING 8224
SWIDTH 578 0
DWIDTH 14 0
BBX 14 16 0 0
BITMAP
1FE0
7EF8
FEF8
F83C
FEFC
FEFC
FEFC
FEFC
FEFC
FEFC
FEFC
FFFC
FFFC
FFF8
7FF8
1FE0
ENDCHAR
STARTCHAR daggerdbl
ENCODING 8225
SWIDTH 578 0
DWIDTH 14 0
BBX 14 16 0 0
BITMAP
1FE0
7EF8
FEF8
F83C
FEFC
FEFC
FEFC
FEFC
F83C
FEFC
FEFC
FFFC
FFFC
FFF8
7FF8
1FE0
ENDCHAR
STARTCHAR bullet
ENCODING 8226
SWIDTH 578 0
DWIDTH 14 0
BBX 14 16 0 0
BITMAP
1FE0
7FF8
F838
F01C
F01C
F01C
F01C
F01C
F01C
F03C
FFFC
FFFC
FFFC
FFF8
7FF8
1FE0
ENDCHAR
STARTCHAR ellipsis
ENCODING 8230
SWIDTH 578 0
DWIDTH 14 0
BBX 14 16 0 0
BITMAP
1FE0
7FF8
FFF8
FFFC
FFFC
FFFC
FFFC
FFFC
FFFC
E4BC
E4BC
FFFC
FFFC
FFF8
7FF8
1FE0
ENDCHAR
STARTCHAR perthousand
ENCODING 8240
SWIDTH 640 0
DWIDTH 15 0
BBX 15 16 0 0
BITMAP
1FF8
7FFC
85FE
B5FE
85FE
DBFE
FA32
FA22
F4AE
F622
FFFE
FFFE
FFFE
FFFE
7FFC
1FF8
ENDCHAR
STARTCHAR guilsinglleft
ENCODING 8249
SWIDTH 578 0
DWIDTH 14 0
BBX 14 16 0 0
BITMAP
1FE0
7FF8
FF78
FF7C
FEFC
FDFC
FBFC
FDFC
FEFC
FE7C
FF7C
FFFC
FFFC
FFF8
7FF8
1FE0
ENDCHAR
STARTCHAR guilsinglright
ENCODING 8250
SWIDTH 578 0
DWIDTH 14 0
BBX 14 16 0 0
BITMAP
1FE0
7FF8
FDF8
FDFC
FEFC
FE7C
FF7C
FF7C
FEFC
FDFC
FDFC
FFFC
FFFC
FFF8
7FF8
1FE0
ENDCHAR
STARTCHAR fraction
ENCODING 8260
SWIDTH 428 0
DWIDTH 10 0
BBX 10 16 0 0
BITMAP
1F00
7B80
FBC0
FBC0
FBC0
FBC0
F3C0
F7C0
F7C0
F7C0
F7C0
FFC0
FFC0
FFC0
7F80
1F00
ENDCHAR
STARTCHAR Euro
ENCODING 8364
SWIDTH 578 0
DWIDTH 14 0
BBX 14 16 0 0
BITMAP
1FE0
7038
F7F8
F7FC
C0FC
F7FC
C0FC
F7FC
F7FC
F03C
F83C
FFFC
FFFC
FFF8
7FF8
1FE0
ENDCHAR
STARTCHAR trademark
ENCODING 8482
SWIDTH 578 0
DWIDTH 14 0
BBX 14 16 0 0
BITMAP
1FE0
7FF8
FFF8
FFFC
FFFC
E2BC
F57C
F57C
FFFC
FFFC
FFFC
FFFC
FFFC
FFF8
7FF8
1FE0
ENDCHAR
STARTCHAR product
ENCODING 8719
SWIDTH 578 0
DWIDTH 14 0
BBX 14 16 0 0
BITMAP
1FE0
7838
E7D8
E86C
DBBC
DBB4
FBB4
D874
DBFC
EBEC
E7DC
F83C
FFFC
FFF8
7FF8
1FE0
ENDCHAR
STARTCHAR minus
ENCODING 8722
SWIDTH 428 0
DWIDTH 10 0
BBX 10 16 0 0
BITMAP
1F00
7F80
FFC0
FFC0
E1C0
FFC0
FFC0
FFC0
FFC0
FFC0
FFC0
FFC0
FFC0
FFC0
7F80
1F00
ENDCHAR
STARTCHAR notequal
ENCODING 8800
SWIDTH 578 0
DWIDTH 14 0
BBX 14 16 0 0
BITMAP
1FE0
7FF8
FF78
F0BC
F23C
FDFC
F03C
F9FC
FFFC
FFFC
FFFC
FFFC
FFFC
FFF8
7FF8
1FE0
ENDCHAR
STARTCHAR uni2706
ENCODING 9990
SWIDTH 578 0
DWIDTH 14 0
BBX 14 16 0 0
BITMAP
1FE0
7FF8
FEF8
FDBC
FB7C
F5FC
F3FC
F3FC
FBFC
F97C
FCBC
FF7C
FFFC
FFF8
7FF8
1FE0
ENDCHAR
STARTCHAR uni2708
ENCODING 9992
SWIDTH 578 0
DWIDTH 14 0
BBX 14 16 0 0
BITMAP
3FF0
4688
8104
8104
9924
8FC4
8384
8104
8104
8104
8104
8004
8304
8304
4108
3FF0
ENDCHAR
STARTCHAR uniF6D6
ENCODING 63190
SWIDTH 419 0
DWIDTH 10 0
BBX 10 8 0 0
BITMAP
7E00
7F00
DB80
ED80
7DC0
36C0
3FC0
1FC0
ENDCHAR
STARTCHAR uFFFF2
ENCODING 1048562
SWIDTH 578 0
DWIDTH 14 0
BBX 14 16 0 0
BITMAP
3FF0
4108
8104
8104
8104
8384
8FC4
9924
8104
8304
8684
8004
8304
8304
4108
3FF0
ENDCHAR
STARTCHAR uFFFF3
ENCODING 1048563
SWIDTH 578 0
DWIDTH 14 0
BBX 14 16 0 0
BITMAP
3FF0
4108
8184
85C4
8D44
8384
8104
8384
8D44
85C4
8184
8104
8004
8004
4008
3FF0
ENDCHAR
STARTCHAR uFFFF4
ENCODING 1048564
SWIDTH 578 0
DWIDTH 14 0
BBX 14 16 0 0
BITMAP
1FE0
7FF8
FEF8
FAFC
F6BC
F6DC
FEDC
F7DC
F7BC
F83C
FFFC
FFFC
FFFC
FFF8
7FF8
1FE0
ENDCHAR
STARTCHAR uFFFF5
ENCODING 1048565
SWIDTH 578 0
DWIDTH 14 0
BBX 14 16 0 0
BITMAP
1FE0
7978
FEF8
FEFC
E6DC
F33C
FC7C
FEFC
FEFC
FEFC
FFFC
FFFC
FCFC
FCF8
7FF8
1FE0
ENDCHAR
STARTCHAR uFFFF6
ENCODING 1048566
SWIDTH 578 0
DWIDTH 14 0
BBX 14 16 0 0
BITMAP
1FE0
7FF8
FEF8
FEFC
FEFC
FC7C
F33C
EFDC
FFFC
FCFC
FB7C
FFFC
FCFC
FCF8
7FF8
1FE0
ENDCHAR
STARTCHAR uFFFF8
ENCODING 1048568
SWIDTH 578 0
DWIDTH 14 0
BBX 14 16 0 0
BITMAP
1FE0
7FF8
FCF8
FBFC
FE7C
F13C
F4FC
F4BC
F03C
F03C
F83C
FFFC
FCFC
FCF8
7FF8
1FE0
ENDCHAR
STARTCHAR uFFFF9
ENCODING 1048569
SWIDTH 578 0
DWIDTH 14 0
BBX 14 16 0 0
BITMAP
3FF0
4008
8104
8544
8944
8924
9124
8824
8844
87C4
8004
8004
8004
8004
4008
3FF0
ENDCHAR
STARTCHAR uFFFFB
ENCODING 1048571
SWIDTH 578 0
DWIDTH 14 0
BBX 14 16 0 0
BITMAP
1FE0
7FF8
FEF8
F7FC
FB7C
FCFC
FCFC
FB7C
F7BC
FE7C
FEFC
FFFC
FFFC
FFF8
7FF8
1FE0
ENDCHAR
STARTCHAR uFFFFC
ENCODING 1048572
SWIDTH 578 0
DWIDTH 14 0
BBX 14 16 0 0
BITMAP
1FE0
7EF8
F018
CFCC
F13C
EEDC
F33C
FEFC
FCFC
FFFC
FFFC
FFFC
FFFC
FFF8
7FF8
1FE0
ENDCHAR
STARTCHAR uFFFFD
ENCODING 1048573
SWIDTH 578 0
DWIDTH 14 0
BBX 14 16 0 0
BITMAP
1FE0
7FF8
F878
F03C
F03C
F03C
F4FC
F5BC
FB7C
FCFC
FF7C
FFFC
FCFC
FCF8
7FF8
1FE0
ENDCHAR
STARTCHAR uFFFFE
ENCODING 1048574
SWIDTH 578 0
DWIDTH 14 0
BBX 14 16 0 0
BITMAP
1FE0
7FF8
C108
DDEC
DDEC
E2EC
DDEC
DDEC
E10C
FFFC
FFFC
FFFC
FFFC
FFF8
7FF8
1FE0
ENDCHAR
STARTCHAR uFFFFF
ENCODING 1048575
SWIDTH 578 0
DWIDTH 14 0
BBX 14 16 0 0
BITMAP
3FF0
4008
8784
8FC4
8FC4
8FC4
8B44
8FC4
8684
8784
8784
8004
8304
8304
4108
3FF0
ENDCHAR
STARTCHAR .notdef
ENCODING -1
SWIDTH 1000 0
DWIDTH 24 0
BBX 1 1 0 0
BITMAP
00
ENDCHAR
STARTCHAR glyph1
ENCODING -1
SWIDTH 0 0
DWIDTH 0 0
BBX 1 1 0 0
BITMAP
00
ENDCHAR
ENDFONT
